<?xml version="1.0" encoding="UTF-8"?>
<svg width="39px" height="35px" viewBox="0 0 39 35" version="1.1" xmlns="http://www.w3.org/2000/svg" xmlns:xlink="http://www.w3.org/1999/xlink">
    <title>Group 26</title>
    <defs>
        <polygon id="path-1" points="0.191932382 0.128628707 13.3493631 0.128628707 13.3493631 19.25 0.191932382 19.25"></polygon>
        <polygon id="path-3" points="0 0.052125 7.86385689 0.052125 7.86385689 3.11471424 0 3.11471424"></polygon>
    </defs>
    <g id="Page-1" stroke="none" stroke-width="1" fill="none" fill-rule="evenodd">
        <g id="MOCK-DSK-Chipotle-Rewards-Redesign-Option-1b" transform="translate(-108.000000, -85.000000)">
            <g id="Group-13" transform="translate(107.848000, 85.000000)">
                <g id="Group-25" transform="translate(0.152000, 0.000000)">
                    <path d="M20.618125,30.398425 L20.526625,30.316925 C20.433375,30.233425 20.362875,30.125675 20.304625,29.978175 C20.274875,29.903675 20.245875,29.828675 20.216625,29.753675 C20.142625,29.563925 20.066125,29.367675 19.984375,29.178175 C19.931125,29.055425 19.913125,28.925425 19.895375,28.799925 C19.877125,28.670425 19.859875,28.548425 19.807625,28.434925 L19.802875,28.424675 L19.802875,28.413175 C19.805625,28.132175 19.774125,27.807925 19.748625,27.547675 C19.725125,27.305175 19.706625,27.113675 19.720875,27.025675 C19.734125,26.944675 19.895125,26.317925 19.918875,26.240925 C20.007375,25.955675 20.253375,25.602925 20.470375,25.291925 C20.563625,25.158175 20.651875,25.031675 20.718625,24.923425 C20.765125,24.847925 20.904375,24.427675 21.027125,24.057425 C21.137375,23.724175 21.241875,23.409175 21.294625,23.290425 C21.332125,23.092925 21.318625,23.033925 21.304375,22.971425 C21.296625,22.938925 21.288375,22.901925 21.287125,22.847925 C21.283625,22.692425 21.258625,22.572425 21.234375,22.456425 C21.220125,22.389425 21.206875,22.326175 21.198125,22.258175 C21.118875,21.992425 20.937625,21.823925 20.743125,21.661675 L20.481625,21.455425 C20.452375,21.442425 20.414625,21.420925 20.371375,21.396175 C20.298875,21.354925 20.175375,21.289425 20.131875,21.288425 C19.958625,21.296925 19.813125,21.295675 19.659375,21.294425 C19.458125,21.292925 19.249875,21.290925 18.960625,21.311425 C18.726625,21.327675 18.490875,21.290175 18.278375,21.203175 C17.693625,20.962175 17.209375,20.834675 16.470875,20.898175 C16.068125,21.074675 15.529625,21.402425 15.286375,21.711925 C15.054625,22.207425 14.750125,23.265675 14.588625,23.904675 C14.590875,23.930175 14.590625,23.957425 14.586875,23.986925 C14.462125,24.946175 14.757375,25.688675 15.074375,26.570175 C15.103125,26.650425 15.132375,26.730425 15.162375,26.809925 C15.195875,26.848175 15.222625,26.896175 15.238125,26.956675 C15.444125,27.764175 16.390625,28.625175 16.695875,29.372175 C16.707875,29.377675 16.968875,29.636175 16.979875,29.643675 C17.000875,29.614425 17.024625,29.588675 17.050875,29.566675 C16.982125,29.411675 16.914125,29.256425 16.846375,29.101675 C16.800125,29.002425 16.759375,28.911175 16.728125,28.835675 C16.708625,28.791925 16.689125,28.748425 16.669375,28.705175 C16.407125,28.132925 15.841625,26.932925 15.655125,26.333425 C15.517875,25.892425 15.362875,25.549675 15.338875,25.131675 C15.332875,25.099425 15.329375,25.071425 15.328625,25.048675 C15.312125,24.575175 15.687125,23.053425 15.735375,22.929925 C15.761125,22.864425 15.781375,22.793675 15.801125,22.725425 C15.848375,22.560675 15.897125,22.390425 16.028125,22.252925 C16.314125,21.915425 16.672125,21.711425 16.962875,21.726425 C17.195875,21.737175 17.903375,21.889175 18.119875,21.986175 C18.190375,22.017675 18.313625,22.044925 18.412625,22.066925 C18.449375,22.075175 18.483625,22.082425 18.512625,22.089925 L18.530375,22.094425 C18.540875,22.097175 18.540875,22.097175 18.565875,22.099925 C18.593375,22.102925 18.645875,22.108925 18.754625,22.122425 C18.840125,22.132925 19.046375,22.143925 19.245875,22.154425 C19.488375,22.167425 19.739375,22.180925 19.826125,22.195675 C20.182375,22.257675 20.329375,22.734925 20.408875,23.088675 L20.411375,23.099675 L20.408875,23.110675 C20.271375,23.741675 20.162375,24.122675 19.915375,24.581925 C19.836375,24.728675 19.774625,24.851925 19.721375,24.969425 C19.698375,25.020425 19.608875,25.180925 19.495625,25.383925 C19.329875,25.681675 19.079125,26.131425 19.056625,26.213425 C19.047625,26.247175 19.037375,26.280675 19.027125,26.314675 C18.996625,26.416675 18.965125,26.522175 18.962125,26.622675 C18.960125,26.689425 18.944625,26.774925 18.928375,26.865425 C18.908125,26.976925 18.887125,27.092175 18.891625,27.172425 C18.898875,27.298925 18.910375,27.389175 18.921625,27.476425 C18.936875,27.596175 18.951375,27.708925 18.950375,27.889425 C18.949625,28.030425 18.952375,28.181675 18.979625,28.330675 C19.063625,28.791425 19.216375,29.241175 19.364125,29.675925 L19.371125,29.697175 C19.396875,29.773175 19.432125,29.876925 19.349875,29.973175 L19.322625,30.005175 L19.286125,29.984425 C19.278875,29.980425 19.271125,29.976675 19.263375,29.973175 C19.241125,29.962925 19.215625,29.951175 19.195875,29.928675 C19.153625,29.881175 19.117375,29.837925 19.081875,29.795925 C18.975625,29.669675 18.883875,29.560425 18.684375,29.382675 C18.622375,29.344175 18.585625,29.274925 18.550375,29.207925 C18.537125,29.183175 18.524125,29.158425 18.509875,29.135925 C18.283125,28.780175 18.099125,28.395175 17.920875,28.023175 C17.865125,27.906175 17.809125,27.788925 17.751875,27.672925 C17.677375,27.521675 17.611125,27.360425 17.555625,27.193925 L17.515875,27.075675 C17.447375,26.872675 17.376875,26.663175 17.325625,26.450925 C17.298875,26.339925 17.280875,26.225175 17.263875,26.114175 C17.242375,25.976425 17.220125,25.833675 17.180625,25.700925 C17.109375,25.460425 16.971125,24.719175 17.011625,24.478925 L17.015625,24.465925 C17.028125,24.438925 17.068125,24.312925 17.106875,24.191425 C17.192875,23.920175 17.232375,23.801425 17.253625,23.769925 C17.286875,23.720675 17.325875,23.677925 17.360125,23.640175 C17.372875,23.626175 17.384875,23.613175 17.395375,23.600925 L17.408875,23.584925 L17.429625,23.583175 C17.741125,23.555925 18.069375,23.544425 18.361875,23.730675 L18.381125,23.743175 L18.384875,23.765675 C18.386375,23.773925 18.388625,23.782425 18.390875,23.790925 C18.397875,23.816675 18.406125,23.848675 18.397125,23.880925 C18.395375,23.887175 18.393875,23.892925 18.392125,23.899175 C18.352875,24.572175 18.082125,25.214675 18.003625,25.888175 C18.016375,25.899175 18.027125,25.912675 18.033875,25.931675 C18.052375,25.983675 18.153125,25.974675 18.194625,25.969925 C18.219625,25.966925 18.245625,25.960925 18.270375,25.953425 C18.594875,25.472925 18.933625,24.759925 19.002875,24.611425 C19.075625,24.455425 19.105375,24.283425 19.133875,24.117175 L19.151375,24.018425 C19.166125,23.937175 19.141125,23.845175 19.114375,23.747425 C19.102375,23.703675 19.090625,23.659675 19.082125,23.616425 C19.073625,23.573175 19.063125,23.530175 19.054375,23.494925 L19.047875,23.467675 C18.811875,23.204925 18.527625,23.045425 18.127875,22.951675 C17.971625,22.914925 17.843125,22.898425 17.722625,22.898425 C17.522125,22.898425 17.343375,22.944425 17.094375,23.021425 C16.795375,23.114175 16.551875,23.339425 16.442875,23.623425 C16.357125,23.846925 16.319625,24.098675 16.292125,24.337425 C16.234375,24.834675 16.316875,25.314425 16.414875,25.758675 C16.508875,26.184925 16.599375,26.537175 16.700375,26.866925 C16.729875,26.964425 16.761625,27.060925 16.792875,27.157675 C16.825625,27.257675 16.857875,27.357425 16.888375,27.457675 C16.920125,27.562425 16.976875,27.656675 17.031625,27.747425 C17.089375,27.844175 17.149375,27.943925 17.182125,28.058425 C17.250125,28.294675 17.361375,28.516925 17.468625,28.731925 L17.480625,28.755925 C17.682875,29.160175 17.943125,29.622925 18.341875,29.992175 C18.527125,30.164175 18.708125,30.349675 18.879625,30.543925 C19.071125,30.760675 19.298625,30.926675 19.556125,31.038175 C19.861875,31.170425 20.415125,31.396175 20.745875,31.531175 L20.759125,31.536675 C20.817875,31.560425 20.883125,31.559675 20.942625,31.533675 L21.041125,31.490675 C21.241125,31.404175 21.447375,31.314675 21.470375,31.244175 C21.329625,31.029925 20.851125,30.605175 20.618125,30.398425" id="Fill-1" fill="#FFFFFF"></path>
                    <g id="Group-5" transform="translate(12.250000, 14.373250)">
                        <mask id="mask-2" fill="white">
                            <use xlink:href="#path-1"></use>
                        </mask>
                        <g id="Clip-4"></g>
                        <path d="M11.874975,17.178 C11.769475,17.299 11.637475,17.364 11.498225,17.4325 C11.376975,17.4915 11.251725,17.55275 11.118475,17.659 C10.953225,17.79025 10.431225,17.91 10.202475,17.93125 C10.069475,17.9435 9.724975,18.00275 9.473725,18.04625 C9.278725,18.07975 9.194475,18.09425 9.151475,18.095 L9.151475,18.09675 C8.853225,18.08675 8.654975,18.103 8.462975,18.11925 C8.293725,18.133 8.137475,18.14625 7.936725,18.13975 C7.776225,18.134 7.587475,18.116 7.341225,18.0755 C7.227225,18.071 6.373725,17.9065 6.075475,17.759 C5.659475,17.55425 5.241225,17.3475 4.911475,16.981 C4.695725,16.74125 4.189725,16.234 4.184725,16.22875 L4.165975,16.2035 C3.979475,15.849 3.727225,15.47675 3.483475,15.1175 C3.248475,14.77175 3.005725,14.41375 2.819475,14.0685 C2.509225,13.49175 2.280725,13.037 2.038725,12.556 L1.852225,12.18475 C1.588975,11.66325 1.249725,10.90025 1.337475,10.297 C1.382225,9.98775 1.432475,9.656 1.494225,9.3215 C1.520725,9.17325 1.552725,9.027 1.584975,8.88025 C1.622225,8.7085 1.659725,8.53725 1.688975,8.3645 C1.750225,8.0025 1.837725,7.624 2.061725,7.3025 C2.081975,7.093 2.191725,6.942 2.289225,6.808 C2.331225,6.74975 2.373475,6.692 2.407475,6.62975 C2.590975,6.29325 2.843975,5.87925 3.176225,5.6645 C3.311225,5.577 3.934475,5.33425 4.318225,5.29925 C4.654225,5.241 5.349725,5.4425 5.858225,5.58725 C6.059225,5.64425 6.232725,5.69375 6.292975,5.69975 C6.692725,5.71325 7.151725,5.617 7.557225,5.5325 C7.993725,5.44125 8.338975,5.368 8.515475,5.4565 C9.190975,5.85875 9.470475,6.357 9.766475,6.9665 C9.994475,7.63825 10.000225,7.98325 10.003975,8.21125 C10.005475,8.301 10.006725,8.372 10.021475,8.43375 C10.033475,8.48425 10.041475,8.56 10.032225,8.61675 C10.015725,8.72125 10.005225,8.827 9.994725,8.93275 C9.967475,9.2045 9.939225,9.48525 9.815975,9.7505 C9.676725,10.0515 8.683975,11.322 8.601475,11.77625 C8.496725,12.35225 8.450975,13.1015 8.547475,13.5905 C8.578975,13.75125 8.608725,13.89575 8.653475,14.0335 L8.694725,14.119 C8.981725,14.73025 9.796725,15.10275 10.217975,15.51875 C10.312475,15.61225 10.392225,15.6975 10.466725,15.777 C10.672225,15.997 10.820975,15.86175 11.119225,16.02175 C11.361225,16.152 11.592725,16.3015 11.806975,16.467 C11.943725,16.57275 12.015225,16.68425 12.025725,16.80825 C12.035475,16.92975 11.986475,17.0505 11.874975,17.178 M13.285725,16.679 C13.200475,16.5405 13.092725,16.4165 12.965475,16.30975 C12.465475,15.891 11.930225,15.745 11.368725,15.37075 C11.188225,15.25125 11.003225,15.12875 10.879225,14.95525 C10.852225,14.918 10.822725,14.878 10.790725,14.83525 C10.506975,14.456 9.362225,14.13975 9.494975,12.52475 C9.537725,12.0045 10.019725,11.62875 10.152725,11.26275 L10.221475,11.0715 C10.291475,10.872 10.558975,10.6755 10.639725,10.4855 C10.824725,10.0505 10.999475,9.63975 11.042975,9.17075 C11.057225,9.014 11.057725,8.854 11.057975,8.7 C11.058725,8.51475 11.059225,8.32325 11.083475,8.12775 C11.107225,7.93675 11.025725,7.53325 10.934475,7.21825 C10.742975,6.55775 10.606225,6.18975 10.182475,5.672 C10.149975,5.632 10.119475,5.59025 10.084225,5.54175 L9.926975,5.33025 L10.135475,5.264 C10.207975,5.241 10.240225,5.23025 10.314475,5.21025 C10.506475,5.1575 10.675475,5.10525 10.830975,5.0505 C11.099475,4.95575 11.099725,4.93525 11.107225,4.68575 L11.112475,4.509 C11.115975,4.39125 11.119475,4.27325 11.121725,4.156 C11.122975,4.06025 11.068975,3.97525 10.989725,3.95 C10.918975,3.928 10.829475,3.9245 10.745225,3.941 C10.615475,3.9675 10.471725,4.00175 10.320975,4.03775 C9.800975,4.16175 9.211475,4.3 8.752225,4.23825 C8.715975,4.2335 8.632225,4.22875 8.524225,4.22325 C8.390225,4.2155 8.219475,4.2065 8.053975,4.19225 C7.871475,4.1755 7.716225,4.05575 7.638225,3.87125 C7.561225,3.688 7.576475,3.4785 7.679475,3.31075 C7.993975,2.79775 8.584975,2.226 8.924725,1.94325 C9.434475,1.51775 9.893225,1.26625 10.368225,1.1505 C10.633225,1.0855 11.335975,1.0135 11.580725,1.23475 L11.652475,1.29875 C11.910475,1.527 12.300225,1.872 12.289975,2.24025 C12.287975,2.32225 12.284725,2.4045 12.281725,2.486 C12.276725,2.61275 12.271975,2.4445 12.270725,2.571 C12.268725,2.75275 12.309475,2.8635 12.402475,2.9295 C12.479975,2.98425 12.535975,3.0285 12.583225,3.06625 C12.701475,3.1595 12.755475,3.2025 12.974725,3.26675 C13.050725,3.28775 13.124975,3.27675 13.181975,3.23075 C13.238725,3.18425 13.272725,3.10975 13.277725,3.01975 C13.300725,2.60575 13.322725,2.49775 13.327975,2.10325 C13.329475,1.9825 13.324725,1.80825 13.266475,1.6975 C13.129725,1.435 12.974225,1.1375 12.771725,0.9225 C12.309725,0.4325 11.827475,0.1805 11.296975,0.153 L11.245975,0.1505 C10.854475,0.13075 10.045225,0.10975 9.657725,0.15875 C9.027725,0.239 8.488225,0.641 7.988975,1.0455 C7.862725,1.14825 7.761725,1.25175 7.680725,1.36175 C7.591975,1.48275 7.507725,1.60775 7.423975,1.73275 C7.328475,1.874 7.233725,2.01575 7.131975,2.15075 C6.969475,2.36775 6.967475,2.46025 6.887475,2.60225 C6.870475,2.63075 6.852225,2.66225 6.832475,2.697 C6.688225,2.951 6.226225,3.376 5.697725,3.50875 C5.367225,3.59025 4.603725,3.4825 3.866475,3.02575 C3.667225,2.902 3.478975,2.78525 3.416225,2.763 C3.360225,2.744 3.320225,2.733 3.289475,2.732 C3.220975,2.7295 3.198475,2.776 3.159225,2.89075 C3.063225,3.172 3.090725,3.13725 3.081725,3.4505 C3.076475,3.62675 3.137975,3.723 3.292975,3.78175 C3.417225,3.82925 3.974725,4.1095 4.117225,4.17025 L3.901225,4.277 C3.753975,4.34975 3.585475,4.39675 3.436725,4.43825 C3.358475,4.46 3.287475,4.48 3.233475,4.50025 C2.882225,4.63225 2.371225,4.95575 2.094225,5.2215 C1.640475,5.65625 0.860225,6.72475 0.774975,6.91 C0.488475,7.5315 0.339725,8.4855 0.299725,9.1145 C0.294225,9.19875 0.281225,9.283 0.267475,9.367 C0.256975,9.4345 0.245975,9.50225 0.240225,9.57 C0.172975,10.35325 0.140975,11.0035 0.386225,11.65125 C0.526225,12.021 0.714975,12.39975 0.980725,12.8425 C1.198725,13.2065 1.421225,13.6395 1.636725,14.05825 C1.886475,14.544 2.144725,15.04625 2.401975,15.45425 C2.818725,16.1155 3.215725,16.6005 3.675225,17.162 C3.772975,17.281 3.873225,17.404 3.977475,17.53275 C4.394225,18.0475 4.806725,18.3835 5.275975,18.59025 C5.371475,18.6325 5.465725,18.67775 5.559975,18.72325 C5.674975,18.77875 5.789725,18.83375 5.906725,18.883 C6.582975,19.16525 7.063225,19.19825 7.790225,19.24775 L7.815475,19.24975 C7.907225,19.25275 8.393475,19.2345 8.680725,19.2215 C8.791975,19.21625 8.881225,19.21225 8.922475,19.21075 C8.992225,19.20825 9.062475,19.199 9.132225,19.1895 C9.223225,19.177 9.317225,19.16475 9.412725,19.16625 C11.021725,18.91 11.676975,18.66725 12.160975,18.382 C12.310225,18.2355 12.459225,18.10675 12.592225,17.992 C12.942725,17.69075 13.173975,17.49125 13.325975,17.0515 C13.367975,16.93025 13.352725,16.7875 13.285725,16.679" id="Fill-3" fill="#FFFFFF" mask="url(#mask-2)"></path>
                    </g>
                    <path d="M37.802225,26.925275 C37.874975,26.944025 37.954475,27.020025 38.042225,27.104025 C38.050725,27.114275 38.059975,27.146025 38.060475,27.152275 C37.982725,27.343025 37.898725,27.531025 37.815225,27.719775 C37.765975,27.830025 37.716475,27.940775 37.668725,28.051775 C37.619225,28.166275 37.540225,28.214025 37.398725,28.214025 L37.388975,28.214025 L37.298725,28.195275 C37.226475,28.181025 37.154225,28.166275 37.083475,28.148275 C36.878975,28.096025 36.674475,28.042025 36.469975,27.988025 C36.056725,27.878525 35.629725,27.765775 35.205225,27.669775 C34.764475,27.569775 34.322225,27.478525 33.879725,27.387025 C33.403975,27.288775 32.928725,27.190775 32.454975,27.081775 C31.805975,26.932275 31.158475,26.774775 30.510975,26.618025 C29.928225,26.475775 29.345475,26.334525 28.761475,26.198775 C28.527475,26.144775 28.527475,26.144775 28.497725,25.922025 C28.459975,25.646275 28.500225,25.305525 28.674975,25.166775 C28.832475,25.041775 28.888725,25.051275 29.103725,25.086275 C29.532725,25.155525 29.965725,25.238025 30.390475,25.331275 C30.702475,25.399775 31.013225,25.474775 31.323975,25.550025 C31.916725,25.693525 32.530225,25.842275 33.143725,25.939775 C33.623975,26.015775 34.104725,26.129775 34.569475,26.240525 C34.891225,26.316775 35.223975,26.395775 35.555475,26.461775 C35.713725,26.493525 35.873725,26.519275 36.033225,26.545025 C36.198225,26.571775 36.363725,26.598025 36.526975,26.631775 C36.880225,26.704275 37.343975,26.804025 37.802225,26.925275" id="Fill-6" fill="#FFFFFF"></path>
                    <path d="M35.53965,18.977275 C35.63415,18.977275 35.7404,19.014025 35.84315,19.049775 L35.88515,19.064525 C35.9894,19.100525 36.0449,19.172025 36.0759,19.311275 C36.15015,19.642275 36.02465,19.899275 35.73165,20.016275 C35.5594,20.085275 35.3909,20.131025 35.23065,20.152275 C34.5864,20.239025 34.0054,20.314525 33.4194,20.365775 C33.1879,20.385775 32.89665,20.418775 32.5924,20.452025 C32.12115,20.505025 31.6339,20.559275 31.28165,20.578525 L31.28215,20.587275 C31.19215,20.584525 31.0314,20.596775 30.72865,20.620525 C30.49815,20.639025 30.27365,20.657025 30.2359,20.658775 L30.23315,20.658775 C30.1589,20.658775 30.08515,20.658025 30.01065,20.657025 C29.83765,20.654025 29.6639,20.652775 29.49015,20.661525 C29.3419,20.674775 29.2634,20.615525 29.2084,20.469025 L29.1769,20.388025 C29.1034,20.200275 29.0399,20.038025 29.1004,19.836275 C29.14915,19.673275 29.2289,19.589275 29.38465,19.537275 C29.47715,19.505775 29.57965,19.485525 29.6804,19.478525 C29.90865,19.462525 30.46665,19.401275 31.05715,19.336775 C31.65415,19.271525 32.2714,19.203775 32.5064,19.188025 C33.0729,19.149525 33.63915,19.109775 34.20565,19.069525 L34.70315,19.034275 C34.7914,19.028025 34.87915,19.020525 34.9669,19.012525 C35.15415,18.996025 35.34765,18.978775 35.5364,18.977275 L35.53965,18.977275 Z" id="Fill-8" fill="#FFFFFF"></path>
                    <path d="M28.0582,14.3015 C28.34145,14.12125 28.66145,13.9395 29.03595,13.7455 C29.8607,13.31875 30.66045,12.824 31.43395,12.34475 C31.7502,12.14925 32.0662,11.95375 32.38445,11.762 C32.83345,11.49175 33.26495,11.17975 33.68245,10.87775 C33.8442,10.7605 34.0057,10.64375 34.1682,10.52875 C34.31145,10.4285 34.42595,10.35625 34.5532,10.35625 C34.60145,10.35625 34.65195,10.36675 34.70595,10.39 C34.75845,10.412 34.8182,10.43725 34.84295,10.468 C34.96795,10.6225 35.08895,10.789 35.20245,10.96325 C35.21495,10.98275 35.2217,11.02275 35.2297,11.06825 C35.23345,11.09025 35.2372,11.11375 35.2422,11.1385 C35.2377,11.149 35.23295,11.1595 35.22845,11.1705 C35.20645,11.22125 35.1837,11.27325 35.1522,11.31275 C35.0737,11.41075 34.9927,11.49125 34.91045,11.55125 C34.81695,11.6195 34.7237,11.689 34.63045,11.75825 C34.3202,11.98925 33.99945,12.228 33.65795,12.4225 C33.4187,12.5585 33.18745,12.7155 32.96395,12.86725 L32.7292,13.025 C32.1897,13.383 31.57845,13.73575 30.8057,14.13525 C30.58945,14.24625 30.3772,14.364 30.1642,14.482 C29.9287,14.6125 29.6927,14.74325 29.4527,14.865 C29.2057,14.99 28.94495,15.102 28.6927,15.2105 L28.42345,15.32725 C28.3072,15.378 28.18945,15.37725 28.0842,15.3255 C27.9577,15.263 27.8557,15.1295 27.81845,14.9775 C27.7432,14.672 27.8217,14.4515 28.0582,14.3015" id="Fill-10" fill="#FFFFFF"></path>
                    <path d="M24.273775,11.36155 L24.299025,11.25305 C24.331775,11.11555 24.375525,10.92905 24.417775,10.74205 L24.590525,9.97455 C24.708275,9.4478 24.826775,8.92055 24.950775,8.39505 C25.008275,8.1518 25.071525,7.91005 25.134525,7.6683 C25.217525,7.3503 25.303775,7.0218 25.374775,6.69405 C25.408025,6.5423 25.492025,6.4253 25.611525,6.3653 C25.729025,6.3068 25.869775,6.3078 26.007525,6.3708 C26.063275,6.39605 26.121775,6.4153 26.180025,6.4343 C26.216525,6.4463 26.253025,6.4583 26.289275,6.4718 C26.618775,6.59905 26.722025,6.7933 26.633525,7.1193 C26.523025,7.5253 26.373525,8.05855 26.196275,8.58005 C25.913775,9.4093 25.607275,10.24755 25.336775,10.9868 C25.242775,11.24605 25.136775,11.52155 25.001775,11.78055 C24.947275,11.88505 24.871775,11.95005 24.783025,11.97005 C24.684025,11.9913 24.571525,11.95655 24.463525,11.8728 C24.270775,11.7238 24.268775,11.72205 24.273775,11.36155" id="Fill-12" fill="#FFFFFF"></path>
                    <path d="M18.603725,2.38425 C18.605475,2.0505 18.606725,1.717 18.604475,1.38325 C18.602475,1.09775 18.630725,0.80475 18.658475,0.52125 L18.675975,0.33375 C18.688475,0.19325 18.768475,0.10975 18.906975,0.09125 C19.120225,0.0625 19.334725,0.04325 19.549225,0.0235 L19.776475,0.0025 C19.914725,-0.011 20.036725,0.03275 20.123725,0.12375 C20.205725,0.2095 20.242975,0.325 20.226725,0.44075 C20.197475,0.643 20.182975,0.84875 20.166975,1.066 C20.160225,1.15275 20.153975,1.2675 20.166975,1.38075 C20.248475,2.117 20.249225,2.86475 20.169475,3.6675 C20.150475,3.85925 20.150975,4.05375 20.151475,4.24225 L20.151475,4.41475 C20.150225,4.63025 20.150975,4.84525 20.151725,5.0605 C20.153225,5.477 20.154725,5.908 20.140475,6.33025 C20.126225,6.75075 20.097725,7.178 20.069475,7.5915 C20.052725,7.84225 20.035975,8.0925 20.021725,8.34325 C20.015225,8.45775 20.014225,8.573 20.012475,8.688 C20.010725,8.84025 20.008725,8.99825 19.993975,9.14975 C19.980225,9.29425 19.951725,9.43625 19.921475,9.586 C19.903225,9.67725 19.884975,9.76825 19.869725,9.86025 C19.856225,9.94325 19.824225,9.97875 19.744225,9.99925 C19.680475,10.015 19.618225,10.03825 19.555975,10.06125 C19.503725,10.081 19.451225,10.10125 19.397225,10.115 C19.204975,10.16375 19.011475,10.1335 18.877225,10.03325 C18.748225,9.93825 18.675725,9.7835 18.666225,9.58525 C18.643225,9.093 18.649475,8.591 18.655475,8.10525 C18.659225,7.79275 18.662975,7.4805 18.659725,7.1685 L18.659225,6.8405 L18.656225,6.8405 C18.656975,6.65925 18.659975,6.478 18.662975,6.2965 C18.670475,5.8185 18.678475,5.32425 18.647475,4.8385 C18.596225,4.0215 18.599975,3.18925 18.603725,2.38425" id="Fill-14" fill="#FFFFFF"></path>
                    <path d="M10.341025,6.006325 C10.503775,5.837575 10.698275,5.680575 10.854025,5.554575 C10.920775,5.501075 11.008025,5.462575 11.085025,5.432075 C11.153775,5.404325 11.210275,5.393325 11.256775,5.393325 C11.347775,5.393325 11.401525,5.435325 11.440275,5.477825 C11.480525,5.521575 11.523025,5.564575 11.565775,5.607325 C11.678025,5.720825 11.784025,5.827575 11.844275,5.950825 C12.048275,6.370825 12.294025,6.772075 12.531025,7.158825 C12.647775,7.349075 12.764525,7.539325 12.876775,7.732325 C13.118025,8.147575 13.344025,8.583825 13.561775,9.004825 C13.677275,9.227325 13.792775,9.449825 13.910775,9.671075 C14.045025,9.922075 14.183025,10.171575 14.320525,10.420825 L14.526025,10.794075 C14.618275,10.962075 14.707275,11.148075 14.735525,11.370825 C14.767775,11.621325 14.748775,11.778575 14.557775,11.890075 C14.528525,11.907575 14.505275,11.929575 14.486775,11.947325 C14.478525,11.954825 14.470525,11.962825 14.462025,11.969575 C14.323525,12.076825 14.219775,12.120325 14.146775,12.109825 C14.069525,12.097825 13.987275,12.025825 13.887775,11.883575 C13.679775,11.583825 13.486275,11.272325 13.312525,10.958075 C12.993275,10.379325 12.624275,9.821825 12.267025,9.283075 C12.070025,8.985825 11.873025,8.688575 11.683275,8.386575 C11.373525,7.894325 10.979775,7.410075 10.444025,6.863325 C10.282775,6.698575 10.208775,6.530575 10.189025,6.284325 L10.187025,6.269825 C10.177775,6.228575 10.213275,6.137825 10.341025,6.006325" id="Fill-16" fill="#FFFFFF"></path>
                    <path d="M2.167325,9.6704 C2.183575,9.6044 2.199575,9.5424 2.229075,9.50115 C2.347575,9.3389 2.489825,9.1699 2.664825,8.98565 C2.733325,8.9139 2.929075,8.9084 3.038075,8.97515 C3.095325,9.0099 3.149325,9.0444 3.182325,9.0859 C3.505575,9.49115 3.906575,9.8139 4.294075,10.1264 C4.479325,10.2759 4.671075,10.4304 4.849825,10.5909 C5.095825,10.8109 5.343325,11.0299 5.590575,11.24865 C5.845825,11.47515 6.101075,11.7009 6.355075,11.9289 C6.630325,12.17565 6.903825,12.42365 7.178075,12.67165 C7.674825,13.1219 8.172075,13.5719 8.675825,14.01415 C9.088575,14.3754 9.519325,14.72865 9.935825,15.07015 L10.368325,15.4254 C10.419075,15.46715 10.475825,15.50215 10.532575,15.5369 C10.562075,15.5554 10.591825,15.5734 10.620325,15.59315 C10.771075,15.6959 10.761825,15.7869 10.729075,15.8704 C10.627325,16.1329 10.437575,16.3264 10.165575,16.4464 C10.046825,16.49765 9.927075,16.4799 9.787075,16.38965 C9.615575,16.27865 9.436325,16.1444 9.239825,15.98065 L9.104575,15.86815 C8.108075,15.0394 7.110825,14.21015 6.121325,13.37265 C5.870575,13.1609 5.625825,12.94215 5.381075,12.7234 C5.132825,12.50165 4.884825,12.2799 4.630325,12.0649 C4.438075,11.90265 4.237825,11.74865 4.037825,11.59465 C3.840575,11.4429 3.643075,11.29065 3.453075,11.1299 C3.140325,10.86615 2.833825,10.5824 2.537575,10.3079 L2.338575,10.1234 C2.217825,10.01215 2.156075,9.89465 2.144575,9.7544 C2.152575,9.72715 2.159825,9.6984 2.167325,9.6704" id="Fill-18" fill="#FFFFFF"></path>
                    <g id="Group-22" transform="translate(0.000000, 18.623250)">
                        <mask id="mask-4" fill="white">
                            <use xlink:href="#path-3"></use>
                        </mask>
                        <g id="Clip-21"></g>
                        <path d="M0.0101,0.422875 C0.01935,0.255375 0.0496,0.155125 0.10535,0.106625 C0.14785,0.070125 0.2186,0.052125 0.3246,0.052125 C0.3616,0.052125 0.4031,0.054375 0.44885,0.058875 C0.9246,0.103375 1.39485,0.225375 1.84985,0.343625 C1.9961,0.381625 2.1421,0.419375 2.28885,0.455125 C2.9321,0.611375 3.5756,0.811625 4.19785,1.005125 C4.6261,1.138125 5.0686,1.275875 5.50885,1.398875 C5.76685,1.470625 6.02635,1.537125 6.2856,1.604125 C6.58035,1.678875 6.8751,1.754625 7.16735,1.838125 C7.3146,1.880125 7.4611,1.957875 7.60235,2.032625 L7.6746,2.070375 C7.8041,2.137875 7.8646,2.250875 7.86385689,2.425375 L7.84785,2.499625 C7.8341,2.565375 7.81985,2.631375 7.8046,2.696875 C7.7576,2.897875 7.6921,3.022125 7.60385,3.076375 C7.5051,3.136375 7.3681,3.119625 7.1631,3.069625 C6.8381,2.990625 6.51085,2.919375 6.18385,2.847875 C5.90485,2.787125 5.62535,2.726375 5.3476,2.660375 L5.1686,2.617875 C4.6346,2.492375 4.0826,2.362375 3.5491,2.206125 C2.81535,1.991375 2.2416,1.855625 1.6891,1.765875 C1.28235,1.699875 0.8716,1.599625 0.47435,1.502125 L0.3426,1.469875 C0.14485,1.422125 0.00835,1.250125 0.00285,1.040875 C-0.00265,0.826625 -0.0004,0.618875 0.0101,0.422875" id="Fill-20" fill="#FFFFFF" mask="url(#mask-4)"></path>
                    </g>
                    <path d="M4.184425,27.69675 C3.805175,27.818 3.425675,27.94 3.048175,28.0665 C2.752175,28.1665 2.456675,28.28 2.170675,28.38975 C2.028175,28.4445 1.885675,28.499 1.742675,28.5525 C1.666425,28.581 1.589175,28.6085 1.510175,28.6285 C1.264175,28.689 1.079425,28.61375 0.944925,28.39675 C0.842175,28.23075 0.734175,28.0515 0.641175,27.8635 C0.579425,27.73825 0.560425,27.64425 0.583925,27.5755 C0.607425,27.5065 0.680425,27.443 0.807425,27.38175 C0.954425,27.31075 1.122925,27.24925 1.339675,27.1875 L1.484925,27.1455 C2.381925,26.88825 3.308925,26.62175 4.223925,26.37325 C4.860425,26.20075 5.427675,26.06225 5.957925,25.9505 C6.328675,25.872 6.711175,25.80975 7.080675,25.74975 C7.243675,25.72325 7.406175,25.69675 7.568675,25.66925 C7.846175,25.6515 8.043425,25.751 8.182925,25.98025 C8.234175,26.06475 8.265925,26.18525 8.125425,26.27975 C8.041425,26.33675 7.948175,26.3845 7.855425,26.41825 L7.383425,26.59125 C6.761175,26.81875 6.117425,27.05475 5.480675,27.27225 C5.050675,27.41925 4.617175,27.55775 4.184425,27.69675" id="Fill-23" fill="#FFFFFF"></path>
                </g>
            </g>
        </g>
    </g>
</svg>