<svg xmlns="http://www.w3.org/2000/svg" width="428" height="87" viewBox="0 0 428 87">
    <g fill="none" fill-rule="evenodd" opacity=".35">
        <g>
            <g>
                <g>
                    <g fill="#786259">
                        <path d="M409.75 75.926c-.39.207-.923.37-1.294.049-.313-.271-.416-.729-.388-1.124.074-1.005.925-1.783 1.745-2.247.648-.366 1.342-.706 1.857-1.22.044 1.774-.275 3.668-1.92 4.542m2.696-1.315c.704-1.645.529-3.5.33-5.229-.068-.581-.873-.6-1.155-.195l-.393.561c-.015.023-.016.045-.028.068-.04.053-.081.108-.105.182-.163.489-.606.776-1.033 1.022-.53.304-1.076.567-1.567.935-1.057.79-1.841 2.058-1.673 3.413.178 1.427 1.477 2.382 2.886 1.942 1.3-.406 2.216-1.478 2.738-2.699" transform="translate(-493 -481) translate(0 439) translate(493 42.015) rotate(-60 409.876 73.164)"/>
                        <path d="M252.75 26.926c-.39.207-.923.37-1.294.049-.313-.271-.416-.729-.388-1.124.074-1.005.925-1.783 1.745-2.247.648-.366 1.342-.706 1.857-1.22.044 1.774-.275 3.668-1.92 4.542m2.696-1.315c.704-1.645.529-3.5.33-5.229-.068-.581-.873-.6-1.155-.195l-.393.561c-.015.023-.016.045-.028.068-.04.053-.081.108-.105.182-.163.489-.606.776-1.033 1.022-.53.304-1.076.567-1.567.935-1.057.79-1.841 2.058-1.673 3.413.178 1.427 1.477 2.382 2.886 1.942 1.3-.406 2.216-1.478 2.738-2.699" transform="translate(-493 -481) translate(0 439) translate(493 42.015) rotate(-12 252.876 24.164)"/>
                        <path d="M364.069 45.931c.82.453 1.599.99 2.289 1.625.163.149.322.305.477.463.021.022.229.323.278.308-.022.185-.364.58-.463.743l-.554.91-.193.317c-1.72-.891-3.495-1.681-5.316-2.347-.324-.118-.686.078-.826.38-.034.022-.07.032-.1.06-.254.235-.317.727-.037.976l4.441 3.95-.894 1.47c-.256.42-.535 1.07-.89 1.477-.508-.115-1.093-.534-1.49-.763-.58-.336-1.137-.71-1.669-1.12-1.044-.806-1.975-1.765-2.78-2.81-1.444-1.874-2.411-4.072-2.852-6.39 3.408-1.327 7.384-1.013 10.579.751m11.852 11.16c-.227.299-.441.61-.646.926l-9.124-5.473.443-.728c2.986 1.968 6.104 3.725 9.327 5.274m1.38.453c.99.494 1.978.99 2.967 1.485.598.298 1.195.598 1.792.897.286.143.576.282.857.435-.306.614-.568 1.247-.784 1.899l-5.799-3.344c.298-.475.617-.936.968-1.372m10.544 5.704c.95-.887 2.023-.66 3.14-.24 1.01.38 2.04.892 2.72 1.74-1.036 1.64-1.821 3.437-2.315 5.315-.806-.38-1.636-.717-2.383-1.209-.963-.632-1.755-1.609-2.017-2.746-.24-1.044.066-2.126.855-2.86m-29.196-7.5c.54.397 1.105.76 1.692 1.084.604.331 1.464.913 2.176.845.72-.068 1.01-.823 1.342-1.368.525-.863 1.05-1.724 1.573-2.586l9.39 5.632c.018.177.111.346.315.464l6.355 3.664c-.009.244.082.502.302.605 1.947.92 3.064 2.838 4.423 4.415 1.321 1.533 2.985 2.62 4.929 2.97l.404.242c.032.019.063.02.096.034l.233.136c.326.191.636.09.836-.12.14-.051.272-.129.351-.258.715-1.159 1.373-2.353 1.966-3.58.297-.612.58-1.231.847-1.857.157-.37.191-.746-.088-1.072-.113-.131-.243-.252-.376-.369-.994-1.629-2.57-2.88-4.414-3.403-1.005-.286-2.032-.276-3.06-.355-.022-.011-.039-.028-.062-.036l-3.597-1.245c-.445-.313-.932-.554-1.418-.797l-1.856-.93-3.65-1.828c-.19-.095-.4-.111-.588-.055-3.265-1.562-6.42-3.34-9.443-5.333.428-.632.925-1.306 1.145-1.982.407-1.252-1.59-2.527-2.445-3.133-1.19-.845-2.535-1.49-3.928-1.92-2.967-.915-6.16-.827-9.055.268-.425-.211-1.124.126-1.038.77.391 2.94 1.621 5.717 3.461 8.037.918 1.156 1.994 2.186 3.182 3.06" transform="translate(-493 -481) translate(0 439) translate(493 42.015) rotate(-166 374 57.485)"/>
                        <path d="M208.57 22.16c-.064 1.705-.873 3.31-2.23 4.376-1.194.938-2.81 1.345-4.324 1.16.202-1.706 1.055-3.293 2.419-4.391 1.165-.936 2.694-1.437 4.207-1.435-.04.085-.068.179-.071.29m-10.446-12.144c1.023.623 2.013 1.305 2.82 2.185.505.55.92 1.172 1.205 1.861.13.316.217.65.274.985.016.089.022.178.03.267-2.392-.503-4.256-2.911-4.329-5.298m21.7 20.298c1.42-.61 2.594-1.694 3.315-3.06.74-1.4 1.055-3.011.736-4.573-.179-.87-.549-1.9-1.627-1.859-.81.033-1.661.658-2.254 1.16-1.472 1.256-2.343 3.114-2.47 5.011-3.602-4.638-8.37-8.496-13.767-10.361.166-.246.261-.56.268-.85.026-1.106-.312-2.213-.866-3.167-1.193-2.056-3.246-3.346-5.262-4.521-.387-.225-1.06-.106-1.164.405-.564 2.752.688 5.535 2.887 7.132-.858-.12-1.73-.175-2.607-.188-3.846-2.706-10.878-2.485-12.968 2.217-.14.313.06.702.324.878 2.042 1.37 4.453 1.696 6.846 1.21 2.147-.437 4.535-1.167 6.1-2.757.01-.01.012-.024.023-.035 3.74.136 7.357 1.475 10.565 3.44-1.587.134-3.12.696-4.408 1.692-1.904 1.47-3.04 3.83-3.083 6.2-.006.316.199.686.534.765 2.206.509 4.526.058 6.334-1.303 1.724-1.297 2.762-3.395 2.842-5.518.004-.087-.019-.159-.039-.23.058.002.114.004.17-.004.65.49 1.283.996 1.884 1.522 4.294 3.753 7.564 8.572 9.431 13.916.321.923 1.842.596 1.517-.337-.798-2.285-1.904-4.583-3.261-6.785" transform="translate(-493 -481) translate(0 439) translate(493 42.015) scale(1 -1) rotate(-29 115.122 0)"/>
                        <path d="M357.7 67.141c-.181.414-.314.882-.456 1.339-.544-.538-1.216-.959-2.044-1.188l2.5-.151zm-4.89 15.164c-3.551 1.656-8.447 1.079-11.877-.684-.504-.259-.977-.57-1.435-.904.188-2.01 3.37-2.6 4.627-3.857 1.383-1.383 1.222-3.21.04-4.67-.682-.844-1.783-1.361-2.356-2.272-.564-.899-.766-1.79-1.604-2.503-.725-.616-1.617-.985-2.493-1.331-.532-.21-1.096-.395-1.54-.771-.36-.305-.412-.404-.402-.888 0 .016.428-1.868.9-.885.342.707 1.372.386 1.428-.329.039-.498.193-.807.412-1.016.135-.07.26-.15.374-.243.607-.258 1.444-.188 2.119-.508.422-.202.514-.518.798-.829.435-.477 1.076-.479 1.622-.757.63-.322 1-.747 1.745-.715.532.024 1.028.25 1.554.038.352-.142.59-.38.764-.714.08-.154.112-.49.16-.806.619.675 1.383 1.176 2.378 1.064.882-.1 2.404-1.148 2.395-2.126-.014-1.524-1.98-1.743-2.945-2.248-.587-.308-.99-.59-1.69-.552-.81.044-1.979.813-2.764.493-.19-.077-.297-.282-.416-.334.004-.006.004-.012.006-.017.347-.103.965-.144 1.158-.182 1.158-.22 2.323-.345 3.5-.206 2.013.239 3.97 1.135 5.712 2.132.63.361 1.212.775 1.767 1.217-.32.383-.767.008-1.347.137-.647.143-.888.659-1.226 1.16-.335.496-.982.734-.99 1.42-.003.318.154.66.305.93.201.36.76.683.9 1.01.245.139.199.182-.14.128-.182-.026-.353.003-.516.085-.299.072-.6.205-.89.309-.327.117-.673.216-.96.421-.554.4-.717 1.01-.509 1.647.248.762.947 1.4 1.638 1.761.53.277 1.321.268 1.998.385-.309.148-.632.258-.968.275-.62.031-1.099-.34-1.688-.453-.869-.165-1.916.085-2.713.432-2.08.907-2.085 3.056-1.716 5.004.16.846.454 1.689 1.111 2.28.817.735 1.786.604 2.746.946.857.308.514.792.09 1.422-.35.516-.763.968-1.206 1.405-.355.351-.735.706-.973 1.154-.311.59-.163 1.405-.674 1.898-.514.493-.065 1.533.688 1.293 3.745-1.191 8.239-3.6 9.22-7.729.263-1.11.27-2.281-.065-3.377-.083-.269-.18-.567-.32-.816l.022-.075c.136-.589 0-2.191.604-2.544.609-.355 1.924.819 2.378 1.233.062.057.132.087.199.12-.432 5.615-3.85 11.173-8.935 13.542zm-2.09-14.636c.572-.287 1.812-.091 3.72.588.802.313 1.618 1.191 2.449 2.634 1.246 2.164-.37 5.168-2.254 6.667-1.885 1.5-3.491 2.682-3.491 2.064 0-.618 1.142-1.57 2.013-2.642.871-1.073 1.734-3.13-.768-3.582-2.502-.452-2.857-1.472-2.857-3.336 0-1.864.33-1.962 1.188-2.393zM334.44 66.38c1.427.458 2.787 1.012 3.62 1.4.833.387 1.938 1.274 2.288 2.511.35 1.238 1.472 2.109 2.314 2.5.842.39 1.928 2.389.484 3.224-1.444.836-3.99.961-4.946 3.72 0 0-2.277-1.652-4.365-6.405-.89-2.026-1.334-4.165-1.334-6.417.341-.66.987-.838 1.939-.533zm23.352-8.539c1.268 1.566 2.137 2.89 2.606 3.975.47 1.083.921 2.758 1.353 5.025-.762-.592-1.64-1.07-2.636-1.432-1.492-.544-2.815-.055-4.742-.36s-1.795-1.177-1.329-1.587c.467-.41 2.272 0 2.777-.73.505-.731-.604-2.054-1.042-2.916-.438-.863.363-1.892 1.443-1.478.72.277 1.244.11 1.57-.497zm-22.668 3.155c.154.385.395.729.733.988-.914.428-1.714 1.537-1.695 2.594.001.047.011.088.014.133-.493 0-.91.121-1.254.327.394-1.249 1.034-2.412 1.817-3.527.122-.173.257-.342.385-.515zm8.014-6.283c.595.857 2.047 1.14 2.957.96.91-.18.918 1.3-.505 1.68-1.423.379-3.55.584-4.63 1.901-1.078 1.317-2.397.602-3.225 1.51-.553.607-.997.21-1.333-1.193 1.117-1.182 1.986-2.029 2.607-2.542 2.276-1.878 4.13-2.316 4.13-2.316zm4.867.81c0-.602 1.664-.023 2.632.6.968.624-.164 1.446-1.199 1.446-1.035 0-1.433-1.445-1.433-2.047zm-.756-3.5c-.936.08-2.955.082-3.79.898-3.49.747-6.262 3.1-8.49 5.803-2.55 3.092-4.398 6.42-3.88 10.543.474 3.774 2.502 7.424 4.95 10.28 2.69 3.135 6.16 4.534 10.195 5.065 3.914.516 7.478-.514 10.502-3.054 2.937-2.468 5.098-5.974 6.049-9.687.927-3.62.67-7.443-.888-10.853-1.616-3.534-4.472-5.936-7.944-7.559-2.115-.987-4.352-1.64-6.704-1.436z" transform="translate(-493 -481) translate(0 439) translate(493 42.015)"/>
                        <path d="M317.67 56.371c-.005-.035-.015-.07-.026-.105-.022-.069-.046-.139-.078-.204-.044-.095-.108-.184-.175-.264-.11-.127-.308-.192-.47-.149-.036.01-.071.02-.109.029-.07-.019-.151-.019-.222-.005-.007 0-.088.027-.125.047-.044.023-.075.06-.112.09-.102.037-.189.098-.253.188-.057.08-.071.177-.07.273v.007c-.005.033-.006.067-.004.1.005.07.007.149.028.219.001.006.005.012.007.018.002.012 0 .026.004.037.052.195.162.364.332.477.012.007.024.01.035.016.01.006.016.017.025.023.075.058.168.1.257.134.092.034.193.054.291.055.07 0 .139-.006.207-.019.015-.002.029-.006.044-.01l.017-.006c.084-.019.158-.057.222-.115l.04-.047c.047-.054.078-.108.101-.178l.008-.026.01-.046c.016-.07.03-.143.038-.215.008-.108-.002-.219-.021-.324" transform="translate(-493 -481) translate(0 439) translate(493 42.015) rotate(-13 316.86 56.496)"/>
                        <path d="M372.632 65.946c-.067-.153-.187-.262-.314-.361-.083-.066-.183-.111-.283-.144-.008-.002-.018 0-.026-.003-.027-.02-.045-.045-.075-.064-.053-.033-.139-.075-.172-.084-.06-.01-.119-.021-.177-.033l-.18.017c-.059.016-.128.043-.184.068-.073.032-.137.085-.198.13-.029.023-.047.056-.072.084h-.004c-.137.055-.281.189-.356.314-.082.138-.134.291-.137.453-.005.277.093.536.272.747.048.057.113.106.171.153.018.013.034.025.053.035.136.076.279.133.439.131.065 0 .14-.006.206-.019h.004c.027.002.053.011.079.01.18-.008.357-.035.515-.133.155-.095.264-.19.37-.338.102-.144.144-.305.166-.478.002-.016.002-.032.001-.048-.002-.07-.007-.144-.02-.213-.002-.013-.005-.026-.01-.038-.018-.062-.042-.127-.068-.186" transform="translate(-493 -481) translate(0 439) translate(493 42.015) rotate(-13 371.592 66.323)"/>
                        <path d="M380.639 77.031l-.011-.023-.01-.02c-.033-.05-.072-.106-.11-.153-.027-.035-.062-.06-.097-.089-.033-.028-.062-.058-.1-.079-.06-.035-.126-.068-.192-.09-.041-.015-.089-.02-.13-.028-.045-.007-.09-.02-.136-.02-.043-.001-.089.005-.131.009-.066.006-.127.008-.19.028-.084.027-.173.055-.25.098-.04.022-.076.05-.112.075-.078.012-.156.032-.227.065-.08.038-.145.093-.196.164-.062.061-.106.135-.13.221-.031.087-.04.176-.024.265 0 .089.022.174.067.252.01.02.02.041.033.061.04.062.08.129.132.183.03.03.065.056.097.082.082.103.181.185.307.233.102.037.209.034.313.015.023.002.047.01.07.01.203-.002.369-.036.55-.122.02-.009.036-.018.053-.028.06-.038.12-.079.175-.124.016-.012.03-.026.043-.04.048-.054.1-.109.139-.168.04-.062.069-.133.097-.2l.011-.025.004-.012c.013-.037.034-.144.036-.184.002-.045-.01-.142-.019-.186.02.106-.041-.12-.062-.17" transform="translate(-493 -481) translate(0 439) translate(493 42.015) rotate(-13 379.653 77.411)"/>
                        <path d="M390.27 54.656c-.02-.06-.042-.123-.067-.181-.029-.064-.09-.139-.123-.183-.01-.018-.024-.033-.04-.046-.05-.048-.104-.101-.166-.14-.131-.081-.27-.129-.426-.137-.076-.005-.154.004-.228.02l-.016.003-.088.033c-.004 0-.06.02-.087.032-.107.05-.225.158-.288.258-.075.12-.11.231-.12.373-.011.024-.032.041-.04.068l-.031.174.014.18.06.162c.036.065.077.128.129.181.022.024.055.048.076.066.021.018.047.042.073.061l.02.015c.146.086.259.119.426.137l.039.015c.116.038.234.044.355.017l.162-.06c.103-.055.186-.13.25-.227l.075-.157c.02-.05.012-.101.014-.153.004-.01.01-.017.012-.025.05-.148.052-.303.023-.455l-.009-.03" transform="translate(-493 -481) translate(0 439) translate(493 42.015) rotate(-13 389.423 54.874)"/>
                        <path d="M325.124 49.197c-2.294.056-4.594-.183-6.818-.746-1.761-.446-4.267-1.093-5.799-2.412 1.865-.082 3.76-.364 5.301-1.462.51-.361.877-.818 1.339-1.23.73-.649 1.334-.64 2.234-.553 1.341.13 2.201-.007 3.383-.63.142-.075.276-.126.412-.18.327.126.707.048.887-.225 1.045-.1 1.956.385 2.965 1.09.96.67 1.79.935 2.955.833.827-.073 1.036-.214 1.733.565.128.141.215.32.338.466.363.43.806.761 1.307 1.015.37.186.763.308 1.163.406-3.495 1.9-7.402 2.965-11.4 3.063m-7.97-20.942c-.27-.291-.782-.333-1.07-.041-.29.292-.33.76-.042 1.071l2.078 2.241c-.343.017-.685.03-1.021-.04-.852-.18-1.639-.726-2.075-1.481-.477-.828-.503-1.833-.612-2.759-.045-.386-.118-.76-.214-1.125.328.089.657.169.99.245.84.19 1.664.417 2.324 1 .864.764 1.312 1.787 1.484 2.874l-1.842-1.985m15.436-4.217c1.089-.785 2.44-.973 3.644-1.514.485-.218.92-.504 1.323-.826-.155 1.886-.607 3.767-1.47 5.442-.477.926-1.125 1.835-2.098 2.282-.802.368-1.711.37-2.6.256 1.126-1.138 2.343-2.185 3.644-3.12.324-.232.307-.807.04-1.072-.322-.318-.725-.288-1.07-.04-1.365.98-2.634 2.085-3.806 3.288.025-1.821.878-3.606 2.393-4.696m6.244 20.862c-1.305-.055-2.758-.16-3.668-1.217-.84-.975-1.258-1.624-2.664-1.574-.842.03-1.425.22-2.206-.233-.53-.309-.981-.74-1.514-1.05-.801-.465-1.713-.69-2.628-.643.06-3.456 1.458-6.743 4-9.152.011-.01.02-.024.03-.036 2.6.425 5.034.233 6.683-2.194 1.74-2.563 2.336-6 2.264-9.041-.017-.75-.957-1.07-1.397-.436-1.11 1.604-2.657 1.967-4.385 2.622-1.116.423-2.078 1.078-2.858 1.984-1.494 1.731-2.122 4.077-1.671 6.31-2.217 2.233-3.643 5.122-4.057 8.208-1.092-2.291-2.504-4.416-4.206-6.315.183-2.026-.291-4.176-1.772-5.646-.731-.725-1.62-1.183-2.612-1.441-.947-.247-1.97-.35-2.809-.886-.395-.253-.783-.086-.993.21-.015.012-.035.016-.049.03-.317.294-.299.752-.04 1.071.588.727.615 1.781.714 2.669.109.999.283 2.003.863 2.85.598.87 1.463 1.533 2.472 1.857.519.167 1.066.225 1.61.203.467-.02 1.044-.134 1.466.119.02.013.042.012.063.022 1.995 2.233 3.589 4.814 4.666 7.609-.13.07-.262.14-.397.21-.72.371-1.325.359-2.112.29-1.098-.098-2.139-.147-3.065.545-1.22.913-1.917 1.919-3.486 2.331-1.324.348-2.697.373-4.057.384-.29.003-.49.146-.614.336-.224.203-.33.516-.126.858 1.276 2.13 3.99 3.06 6.244 3.767 2.502.784 5.135 1.183 7.756 1.198 5.265.032 10.496-1.474 14.884-4.393.597-.397.474-1.394-.329-1.426" transform="translate(-493 -481) translate(0 439) translate(493 42.015) scale(-1 1) rotate(-4 0 9337.446)"/>
                        <path d="M307.855 30.486l-.02-.202c-.03-.13-.092-.243-.182-.341-.05-.058-.133-.117-.18-.155-.011-.01-.024-.02-.039-.026-.031-.017-.065-.03-.099-.047l-.018-.015-.008-.005-.003-.002c-.015-.008-.166-.079-.182-.085l-.01-.004-.005-.001c-.015-.004-.184-.032-.202-.034l-.02-.001c-.025 0-.18.016-.206.019h-.005l-.01.003-.01.003-.186.07-.005.003c-.003 0-.007.003-.01.005l-.004.003c-.028.018-.055.037-.08.056-.028.02-.056.039-.082.059l-.008.007-.004.004-.124.149-.002.003-.007.009-.002.004-.082.178-.002.003-.003.012-.035.202v.008c-.006.137.024.266.088.387.01.018.028.026.04.042.004.009.002.02.007.03l.112.157c.09.098.199.167.326.208l.01.003c.02.006.096.02.12.022l.088.014.013.002.204-.02c.002 0 .004 0 .007-.002.003 0 .005 0 .008-.002.01 0 .015.006.024.006.106.008.203-.01.295-.053.096-.028.178-.076.25-.148.04-.05.082-.099.124-.148.073-.117.113-.242.119-.38M307.623 35.489l-.077-.037-.13-.107c.06.065.129.11.207.144m.203.062l-.11-.019-.049-.022c.05.025.104.031.16.041m-.597-.544l-.018-.18c.001.12.024.236.08.344-.022-.054-.042-.109-.062-.164m.147-.735c-.014.015-.057.067-.074.088l-.053.065-.004.005c-.037.06-.07.123-.088.191-.018.067-.032.137-.036.206v.002c0 .007.018.199.02.205v.008l.071.185.002.004h.002l.056.082c.02.026.038.052.057.079l.002.002s0 .002.002.003l.15.125c.056.041.122.072.19.09h.002c.01.003.194.034.203.035h.008c.065.001.145 0 .215-.021l.003-.001.186-.07.007-.004c.028-.017.07-.051.084-.06.005-.003.06-.039.085-.061.024-.022.064-.076.067-.08 0-.001.05-.053.067-.08l.002-.004c.008-.012.08-.166.084-.18l.003-.008h.001l.017-.102.018-.102v-.005c0-.01-.018-.197-.02-.205v-.004l-.002-.003-.068-.183-.005-.01c-.018-.036-.053-.058-.076-.09-.016-.02-.02-.048-.037-.067l-.006-.006c-.005-.006-.144-.122-.15-.126l-.002-.002c-.057-.039-.124-.071-.19-.088-.01-.002-.192-.034-.202-.034h-.008c-.005 0-.199.018-.203.02-.062.007-.256.097-.198.072l-.013.007c-.04.026-.121.074-.169.122M307.674 37.845c-.717.664.314 1.776 1.03 1.112l.078-.07c.716-.665-.315-1.778-1.031-1.112l-.077.07zM312.132 38.524l.044.037c-.043-.04-.099-.061-.15-.087l.106.05zm.136.113c.035.052.072.101.108.153l-.002-.002c-.041-.086-.102-.155-.178-.21l.072.06zm-.037.96l-.145.104c.104-.061.193-.139.26-.242l-.115.139zm-1.26-.39c0 .005-.003.011 0 .018 0 .006.004.01.006.016.011.089.017.18.06.262.135.19.09.15.274.295l.007.006c.06.035.123.062.188.088l.009.002c.068.019.138.027.208.037l.021.001c.18-.011.261-.017.425-.1.064-.032.12-.08.174-.123l.008-.006c.047-.049.09-.102.13-.156.042-.058.067-.132.092-.193l.002-.01c.019-.069.032-.14.038-.21.005-.074-.005-.149-.021-.222 0-.003-.001-.006-.004-.009-.006-.021-.06-.168-.07-.186l-.002-.006-.002-.005-.115-.16-.006-.007c-.048-.052-.106-.098-.164-.137-.06-.04-.13-.065-.195-.092l-.02-.007c-.07-.015-.14-.03-.211-.036h-.012c-.034 0-.089.007-.105.01-.018 0-.073.004-.108.01l-.01.002c-.068.022-.142.04-.204.08-.158.1-.18.123-.296.274-.058.085-.093.178-.1.28-.008.027.003.054 0 .082l-.02.111c-.001.033.02.06.022.09zM427.091 42.907c.028-.087.015-.176.01-.265-.116.258-.268.497-.437.728l.062-.023c.117-.063.21-.15.282-.262l.083-.178M401.861 57.797c1.357-1.095 3.094-1.663 4.82-1.883-.208 1.748-1.006 3.4-2.307 4.61-1.016.945-2.281 1.556-3.624 1.82l3.548-3.373c.707-.673-.322-1.786-1.03-1.113l-3.704 3.522c.31-1.408 1.156-2.662 2.297-3.583m-3.179 6.196c2.44.167 4.93-.687 6.723-2.356 1.795-1.67 2.835-4.082 2.848-6.53.002-.376-.308-.814-.729-.786-2.403.164-4.792.828-6.694 2.364-1.787 1.443-2.999 3.703-2.91 6.03.003.117.031.22.074.309-.12.436.18.934.688.97" transform="translate(-493 -481) translate(0 439) translate(493 42.015)"/>
                        <path d="M341.917 39.287l4.514 2.397c-1.433.15-2.892-.253-4.127-1.044-1.468-.939-2.557-2.407-3.314-3.972 1.724-.358 3.544-.127 5.104.723 1.217.664 2.199 1.671 2.874 2.861l-4.323-2.295c-.863-.458-1.591.872-.728 1.33m2.906-3.226c-2.153-1.172-4.771-1.393-7.096-.63-.358.119-.674.551-.514.941.917 2.227 2.304 4.282 4.363 5.599 1.936 1.237 4.465 1.67 6.644.848.109-.042.197-.1.268-.17.452-.023.83-.465.701-.96-.615-2.365-2.215-4.456-4.366-5.628" transform="translate(-493 -481) translate(0 439) translate(493 42.015) rotate(-13 343.192 39.113)"/>
                        <path d="M376.196 34.977c1.385 1.595 2.626 3.364 3.248 5.397.343 1.122.486 2.287.384 3.458-.051.575-.175 1.137-.362 1.683-.468-1.925-.97-3.841-1.525-5.743-.115-.392-.499-.66-.913-.564-.382.09-.68.517-.563.912.633 2.163 1.204 4.343 1.722 6.535-1.754-1.085-2.955-2.977-3.356-4.99-.46-2.32.161-4.693 1.365-6.688m2.232 13.505c.25.115.461.073.62-.045 1.087-.078 1.74-1.983 1.98-2.82.419-1.46.44-3.015.16-4.501-.573-3.049-2.469-5.655-4.525-7.892-.347-.377-.913-.282-1.196.108-1.832 2.528-2.757 5.788-2.069 8.882.615 2.755 2.467 5.093 5.03 6.268" transform="translate(-493 -481) translate(0 439) translate(493 42.015)"/>
                        <path d="M365.466 25.758c1.757-1.158 3.95-1.451 6.013-1.165-.327 1.906-1.4 3.681-2.989 4.803-1.346.95-3 1.39-4.631 1.304 1.41-1.195 2.85-2.357 4.334-3.459.329-.244.297-.794.04-1.071-.303-.328-.74-.286-1.07-.04-1.48 1.097-2.914 2.254-4.32 3.445.32-1.545 1.285-2.934 2.623-3.817m-3.785 6.1c2.577.758 5.45.34 7.653-1.215 2.176-1.534 3.54-4.001 3.749-6.648.023-.3-.217-.69-.529-.752-2.673-.528-5.625-.31-7.932 1.264-2.083 1.421-3.541 3.83-3.403 6.4-.127.365-.017.81.462.952" transform="translate(-493 -481) translate(0 439) translate(493 42.015) rotate(-10 367.127 27.606)"/>
                        <path d="M351.877 30.752c-.809-.738-1.606-1.49-2.378-2.269-.279-.282-.776-.339-1.07-.041-.281.284-.34.77-.042 1.071.883.892 1.798 1.749 2.73 2.587-1.188-.276-2.293-.868-3.157-1.765-1.145-1.185-1.748-2.768-1.785-4.39 2.459.775 4.53 2.532 5.702 4.807m1.318 3.02c.249-.02.469-.13.616-.305.267-.144.458-.42.376-.805-.898-4.133-4.345-7.589-8.5-8.43-.51-.103-.925.168-.988.694-.277 2.317.524 4.757 2.149 6.44 1.625 1.683 4.012 2.599 6.347 2.407" transform="translate(-493 -481) translate(0 439) translate(493 42.015) rotate(13 349.425 29.004)"/>
                        <path d="M356.601 29.606l.032-.067.007-.008c-.02.06-.055.117-.058.182.006-.035.012-.071.02-.107m.522.879l-.065-.011c-.038-.019-.077-.037-.115-.054.056.034.117.05.18.065m-.761-.196c.013.035.025.082.048.117.085.132.165.24.305.321.116.074.242.113.378.119.137.004.265-.026.387-.09l.022-.013c.059-.042.118-.082.175-.126.014-.012.03-.024.041-.037.058-.057.108-.123.157-.184.011-.014.023-.03.033-.046.01-.015.019-.03.026-.046.035-.07.074-.147.102-.223.007-.017.012-.035.016-.053.008-.04.014-.084.021-.123.008-.042.017-.085.022-.128.003-.06-.019-.115-.033-.172l.001-.008c0-.003-.003-.006-.004-.008-.008-.034-.003-.073-.018-.106-.028-.095-.076-.178-.149-.25-.064-.075-.144-.131-.236-.165-.038-.022-.083-.02-.124-.033h-.002c-.009-.004-.017-.007-.026-.009-.005-.002-.02-.004-.027-.005-.038-.008-.071-.03-.111-.03l-.037.004-.03-.004-.005-.001-.014-.001c-.075-.001-.153.008-.227.02l-.024.008c-.049.016-.145.045-.207.08-.073.04-.143.088-.201.145-.061.058-.116.124-.162.192-.005.008-.01.016-.013.024-.036.065-.068.134-.096.203l-.01.027-.003.014-.001.007c-.012.063-.027.143-.036.206l-.002.026c0 .077.01.153.021.228.007.04.032.09.043.12M280.039 42.631c.432.137.778-.121.95-.494l2.609-5.607c.172-.371-.14-.84-.494-.953-.433-.136-.779.122-.953.495-.87 1.868-1.737 3.738-2.607 5.607-.172.37.139.84.495.952M288.875 36.391c.163-.96-1.355-1.008-1.515-.058-.78 4.585-1.963 9.095-3.505 13.483-.323.921 1.124 1.377 1.447.457 1.587-4.52 2.77-9.16 3.573-13.882zM291.986 42.194c.442.018.732-.32.786-.728l.721-5.444c.054-.406-.346-.772-.727-.786-.443-.016-.733.321-.788.729-.24 1.814-.48 3.629-.722 5.443-.052.407.348.772.73.786M297.59 39.754c.096.384.513.677.91.565.391-.11.67-.5.566-.912-.403-1.606-.807-3.211-1.209-4.817-.097-.385-.514-.677-.913-.565-.389.11-.667.5-.564.912l1.21 4.817" transform="translate(-493 -481) translate(0 439) translate(493 42.015)"/>
                        <path stroke="#786259" stroke-width=".25" d="M276.715 26.353c1.182-.919 2.707-1.1 4.094-.593.303.11.716-.157.764-.467.472-3.07 3.61-4.77 6.29-3.62.01.012.012.03.025.04.156.172.34.305.567.37.017.005.034.009.051.011.063.01.132.017.195.02.018 0 .035-.001.051-.003.063-.007.131-.018.193-.033.038-.01.075-.03.11-.047.036-.017.073-.031.107-.053.015-.009.027-.025.04-.035.072-.208.141-.416.199-.628l.018-.095c.003-.034.004-.068.01-.102.027-.109.063-.216.095-.324.02-.064.035-.13.057-.193.017-.051.036-.1.054-.15-.005-.016-.013-.03-.016-.047.75-2.148 2.661-3.809 5.101-3.474 3.006.412 3.765 3.477 4.136 6.022.037.253.192.556.483.594 1.717.222 3.584 1.137 3.796 3.062.199 1.807-1.4 2.656-2.9 3.035-3.476.881-7.288 1.046-10.86 1.077-3.8.032-7.598-.283-11.339-.953-.69-.123-1.92-.188-2.355-.828-.59-.868.387-2.083 1.034-2.586m-.733 4.245c1.782.647 3.9.773 5.772.982 4.091.459 8.218.531 12.322.191 1.947-.161 3.904-.393 5.823-.765 1.333-.258 2.763-.706 3.674-1.776.985-1.158 1.062-2.817.407-4.154-.754-1.54-2.312-2.387-3.943-2.69-.51-3.047-1.673-6.264-5.186-6.712-3.183-.404-5.82 1.873-6.594 4.816-3.15-1.24-6.855.41-7.77 3.866-2.427-.533-5.437.687-6.118 3.234-.37 1.377.307 2.534 1.613 3.008" transform="translate(-493 -481) translate(0 439) translate(493 42.015)"/>
                        <path d="M384.306 52.832c-.122-.07-.26-.135-.4-.163-.095-.02-.205-.043-.306-.047-.108-.004-.22.011-.325.023-.142.018-.279.071-.411.127-.13.055-.25.142-.355.233-.076.065-.137.147-.198.225-.028.034-.05.07-.072.11-.11.215-.18.398-.122.654.02.096.06.19.1.278.04.083.1.159.155.23.02.027.045.051.07.074.158.138.275.215.474.292.03.011.062.02.092.028.096.02.194.04.292.048.27.024.533-.043.778-.15.217-.096.441-.293.55-.505.038-.07.093-.172.115-.26.005-.02.005-.044.009-.065.05-.094.082-.196.08-.305-.004-.066-.011-.134-.018-.202-.03-.13-.091-.243-.182-.341-.085-.115-.204-.212-.326-.284M300.346 43.918c-.177.022-.344.087-.507.157-.16.068-.308.174-.439.287-.09.08-.169.181-.243.276-.034.043-.063.088-.088.137-.135.265-.222.49-.151.806.026.118.073.234.124.343.048.102.123.195.19.283.028.033.055.063.086.09.195.172.339.267.586.36.037.016.074.027.113.035.118.026.24.05.36.06.332.03.658-.054.959-.186.267-.119.544-.36.678-.62.047-.089.113-.213.14-.322.007-.026.008-.054.014-.081.06-.115.099-.24.098-.374l-.023-.25c-.039-.16-.112-.3-.225-.421-.104-.14-.25-.261-.401-.348-.15-.09-.32-.169-.493-.203-.119-.024-.253-.052-.378-.057-.132-.006-.271.013-.4.028" transform="translate(-493 -481) translate(0 439) translate(493 42.015)"/>
                        <path d="M345.18 47.93l-.004.147c-.038.975 1.478 1.035 1.514.058l.006-.147c.038-.975-1.478-1.035-1.515-.058" transform="translate(-493 -481) translate(0 439) translate(493 42.015) rotate(-13 345.936 48.032)"/>
                        <path d="M399.18 82.93l-.004.147c-.038.975 1.478 1.035 1.514.058l.006-.147c.038-.975-1.478-1.035-1.515-.058" transform="translate(-493 -481) translate(0 439) translate(493 42.015) rotate(-13 399.936 83.032)"/>
                        <path d="M274.18 34.93l-.004.147c-.038.975 1.478 1.035 1.514.058l.006-.147c.038-.975-1.478-1.035-1.515-.058" transform="translate(-493 -481) translate(0 439) translate(493 42.015) rotate(-13 274.936 35.032)"/>
                        <path d="M368.097 39.23l-.024-.062c.022.038.034.082.062.117l-.038-.055m-.07.166c-.02-.05-.038-.102-.057-.151.017.081.056.15.104.216-.016-.021-.03-.044-.047-.065m.152.49c.003 0 .006.002.008.004.005.004.174.081.179.084l.004.001.01.003.006.002c.036.008.168.032.204.035h.026c.043-.002.164-.014.206-.02h.009l.018-.004.014-.005c.032-.01.156-.057.186-.07l.006-.002c.037-.017.074-.05.104-.072.028-.018.072-.046.1-.073.002-.004.006-.008.01-.01.025-.03.102-.121.125-.152l.007-.008.014-.026c.03-.056.063-.128.087-.186l.007-.016.01-.03c.008-.038.014-.08.02-.115.005-.036.014-.077.02-.116.007-.059-.004-.12-.01-.177-.006-.06-.007-.12-.025-.177-.012-.037-.027-.075-.04-.109-.013-.034-.027-.073-.042-.108-.005-.011-.01-.023-.018-.034l-.01-.018c-.038-.056-.08-.115-.122-.17-.007-.01-.016-.02-.028-.03-.064-.077-.144-.132-.237-.166-.088-.051-.185-.076-.29-.076-.103-.007-.202.01-.293.054-.095.028-.18.076-.251.148l-.124.148c-.039.061-.043.134-.062.2l-.037.044-.014.018c-.004.007-.008.013-.01.02-.034.064-.065.13-.093.198-.006.014-.01.029-.014.044-.014.064-.026.144-.035.208l-.002.011v.027c.002.031.014.176.019.205v.008l.004.01.031.085c.01.025.033.088.042.106.032.062.073.12.12.171l.006.006c.007.008.052.046.088.077l.006.004.035.028c.01.007.02.017.026.02M325.097 25.23l-.024-.062c.022.038.034.082.062.117l-.038-.055m-.07.166c-.02-.05-.038-.102-.057-.151.017.081.056.15.104.216-.016-.021-.03-.044-.047-.065m.152.49c.003 0 .006.002.008.004.005.004.174.081.179.084l.004.001.01.003.006.002c.036.008.168.032.204.035h.026c.043-.002.164-.014.206-.02h.009l.018-.004.014-.005c.032-.01.156-.057.186-.07l.006-.002c.037-.017.074-.05.104-.072.028-.018.072-.046.1-.073.002-.004.006-.008.01-.01.025-.03.102-.121.125-.152l.007-.008.014-.026c.03-.056.063-.128.087-.186l.007-.016.01-.03c.008-.038.014-.08.02-.115.005-.036.014-.077.02-.116.007-.059-.004-.12-.01-.177-.006-.06-.007-.12-.025-.177-.012-.037-.027-.075-.04-.109-.013-.034-.027-.073-.042-.108-.005-.011-.01-.023-.018-.034l-.01-.018c-.038-.056-.08-.115-.122-.17-.007-.01-.016-.02-.028-.03-.064-.077-.144-.132-.237-.166-.088-.051-.185-.076-.29-.076-.103-.007-.202.01-.293.054-.095.028-.18.076-.251.148l-.124.148c-.039.061-.043.134-.062.2l-.037.044-.014.018c-.004.007-.008.013-.01.02-.034.064-.065.13-.093.198-.006.014-.01.029-.014.044-.014.064-.026.144-.035.208l-.002.011v.027c.002.031.014.176.019.205v.008l.004.01.031.085c.01.025.033.088.042.106.032.062.073.12.12.171l.006.006c.007.008.052.046.088.077l.006.004.035.028c.01.007.02.017.026.02M160.009 34.12c.16.147.336.273.552.326.218.054.435.072.656.017.487-.12.87-.548.877-1.06.001-.072-.013-.147-.024-.22.007-.065.027-.125.027-.188 0-.167-.013-.343-.062-.502l-.07-.184c-.044-.09-.106-.164-.186-.22-.047-.05-.101-.084-.164-.104-.089-.051-.185-.077-.29-.077-.122-.015-.247.003-.37.018-.05.005-.1.019-.15.033-.045.003-.092-.008-.135.005-.218.066-.426.167-.586.332-.162.165-.284.35-.356.572-.072.218-.082.46-.033.683.045.201.16.429.314.57M386.702 81.141c.02-.085.046-.169.08-.25.032-.06.068-.117.109-.172.038-.04.079-.08.121-.115.064-.037.127-.075.195-.103l.01.002c.061-.004.122.004.181.008.049.014.096.028.143.045.063.034.122.073.179.114.053.05.103.105.15.163.045.072.085.147.12.224.017.057.031.116.041.174.001.057 0 .112-.005.168-.01.036-.021.072-.034.106-.02.033-.039.064-.06.094-.038.04-.078.076-.12.11-.057.035-.115.065-.175.092-.08.026-.164.045-.249.058-.083.003-.166-.001-.248-.01-.054-.013-.107-.03-.16-.05-.039-.022-.077-.045-.114-.071-.028-.027-.054-.055-.08-.083-.018-.033-.036-.065-.052-.098-.018-.061-.032-.123-.042-.184-.002-.074.002-.148.01-.222m-1.476-.364c-.076.405-.089.82.055 1.212.161.443.43.826.84 1.074.704.427 1.641.424 2.358.022.814-.456 1.238-1.375 1.02-2.29-.236-.982-1.172-1.866-2.224-1.807-.106.005-.205.022-.3.056-.057 0-.112-.008-.172.007-.799.218-1.424.91-1.577 1.726M325.032 58.339c-.01.035-.022.07-.035.105-.027.047-.059.093-.091.136-.046.047-.096.09-.148.13-.072.045-.148.083-.227.116-.08.022-.162.04-.244.05-.056-.002-.112-.005-.165-.01-.045-.013-.088-.027-.13-.043-.033-.02-.065-.04-.097-.063-.025-.026-.05-.054-.074-.083-.031-.054-.06-.11-.085-.168-.02-.071-.033-.144-.043-.217 0-.088.006-.175.018-.262.018-.065.04-.131.066-.194.027-.048.058-.095.09-.14.052-.052.105-.103.166-.147h.01c.058-.018.119-.025.178-.034.05 0 .1.003.15.009.067.018.135.041.2.069.063.036.125.078.184.122.061.059.118.121.17.189.03.052.057.105.082.16.013.054.025.109.033.165 0 .036-.004.073-.008.11m1.295-1.049c-.46-.897-1.58-1.533-2.588-1.227-.102.032-.195.071-.277.126-.056.014-.113.019-.166.048-.726.401-1.169 1.223-1.122 2.051.022.41.107.818.34 1.166.262.39.614.698 1.07.843.787.247 1.697.021 2.298-.54.682-.636.876-1.629.445-2.467M372.371 79.11c-.003.06-.009.121-.017.18l-.013.093c-.02.084-.041.166-.07.247-.018.058-.04.114-.062.172l-.038.085c-.051.101-.11.2-.173.294-.152.227-.15.225-.356.416-.088.08-.181.158-.28.227l-.032.018c-.064.037-.127.074-.194.108-.23.118-.447.186-.715.22-.11.014-.224.01-.354-.003l-.09-.014c-.01-.005-.119-.034-.128-.036-.044-.015-.088-.03-.131-.047-.011-.004-.101-.052-.116-.058-.068-.04-.136-.079-.2-.124.007.004-.056-.046-.088-.07l-.085-.077c-.083-.084-.16-.175-.232-.267l-.01-.013c-.031-.05-.06-.1-.089-.151-.044-.084-.083-.17-.12-.257-.007-.024-.02-.059-.023-.075-.017-.057-.03-.113-.04-.17-.011-.047-.017-.094-.024-.14l-.008-.039c0-.01.002-.01.003-.04.004-.114.01-.227.026-.34.005-.027.012-.068.016-.083.021-.082.047-.163.078-.243.016-.046.035-.09.054-.136.013-.03.013-.033.017-.043.006-.008.01-.012.03-.044.066-.104.133-.204.202-.306.019-.025.02-.027.027-.04.004-.002.002.002.013-.01.048-.055.1-.108.154-.16.092-.085.19-.168.295-.24l.043-.025c.065-.034.127-.074.194-.106.055-.028.111-.05.168-.076.02-.007.022-.01.025-.011l.096-.029c.068-.019.126-.054.185-.086.007-.003.014-.002.02-.007-.003.003.063-.027.1-.045.04-.011.105-.032.103-.032.035-.008.153-.026.178-.033.102-.003.203.006.304.011l.032.002c.062.014.125.03.184.05.057.017.111.037.166.06.016.006.059.026.08.036.075.04.146.08.215.127.05.034.097.07.144.106.014.01.012.008.016.01l.025.027c.084.085.162.172.238.264l.022.025c0 .003-.002.001.006.017.031.05.06.101.087.155.017.033.064.16.073.177.027.105.048.209.066.316.002.008.003.025.004.042.002.063.002.127 0 .19m1.176-1.475c-.736-1.355-2.48-2.073-3.906-1.381-.022.011-.033.03-.053.042-1.242.443-2.191 1.5-2.388 2.827-.202 1.362.622 2.716 1.839 3.297 2.723 1.302 5.942-2.15 4.508-4.785M418.371 49.11c-.003.06-.009.121-.017.18l-.013.093c-.02.084-.041.166-.07.247-.018.058-.04.114-.062.172l-.038.085c-.051.101-.11.2-.173.294-.152.227-.15.225-.356.416-.088.08-.181.158-.28.227l-.032.018c-.064.037-.127.074-.194.108-.23.118-.447.186-.715.22-.11.014-.224.01-.354-.003l-.09-.014c-.01-.005-.119-.034-.128-.036-.044-.015-.088-.03-.131-.047-.011-.004-.101-.052-.116-.058-.068-.04-.136-.079-.2-.124.007.004-.056-.046-.088-.07l-.085-.077c-.083-.084-.16-.175-.232-.267l-.01-.013c-.031-.05-.06-.1-.089-.151-.044-.084-.083-.17-.12-.257-.007-.024-.02-.059-.023-.075-.017-.057-.03-.113-.04-.17-.011-.047-.017-.094-.024-.14l-.008-.039c0-.01.002-.01.003-.04.004-.114.01-.227.026-.34.005-.027.012-.068.016-.083.021-.082.047-.163.078-.243.016-.046.035-.09.054-.136.013-.03.013-.033.017-.043.006-.008.01-.012.03-.044.066-.104.133-.204.202-.306.019-.025.02-.027.027-.04.004-.002.002.002.013-.01.048-.055.1-.108.154-.16.092-.085.19-.168.295-.24l.043-.025c.065-.034.127-.074.194-.106.055-.028.111-.05.168-.076.02-.007.022-.01.025-.011l.096-.029c.068-.019.126-.054.185-.086.007-.003.014-.002.02-.007-.003.003.063-.027.1-.045.04-.011.105-.032.103-.032.035-.008.153-.026.178-.033.102-.003.203.006.304.011l.032.002c.062.014.125.03.184.05.057.017.111.037.166.06.016.006.059.026.08.036.075.04.146.08.215.127.05.034.097.07.144.106.014.01.012.008.016.01l.025.027c.084.085.162.172.238.264l.022.025c0 .003-.002.001.006.017.031.05.06.101.087.155.017.033.064.16.073.177.027.105.048.209.066.316.002.008.003.025.004.042.002.063.002.127 0 .19m1.176-1.475c-.736-1.355-2.48-2.073-3.906-1.381-.022.011-.033.03-.053.042-1.242.443-2.191 1.5-2.388 2.827-.202 1.362.622 2.716 1.839 3.297 2.723 1.302 5.942-2.15 4.508-4.785M326.496 68.583c-.003.05-.008.1-.014.15l-.011.077c-.017.07-.036.138-.058.206-.016.048-.033.095-.054.142-.005.013-.02.052-.03.072-.042.084-.091.165-.144.244-.127.189-.124.187-.297.345-.073.068-.15.133-.232.19l-.026.015c-.054.03-.107.061-.161.09-.192.097-.372.154-.595.183-.09.01-.187.008-.295-.005-.025-.002-.05-.006-.076-.01-.006-.005-.098-.028-.105-.03-.036-.012-.073-.025-.109-.04l-.096-.047c-.057-.033-.113-.066-.166-.104l-.075-.058c-.025-.023-.074-.068-.07-.063-.069-.07-.132-.145-.191-.222-.005-.006-.005-.007-.01-.01-.026-.042-.05-.085-.073-.128-.039-.069-.07-.14-.1-.212l-.02-.063c-.013-.047-.025-.094-.034-.143-.008-.038-.012-.077-.018-.115-.004-.023-.006-.023-.008-.032 0-.01.003-.01.003-.034.004-.095.01-.188.022-.283l.013-.068c.018-.068.04-.136.064-.203l.045-.112c.012-.025.012-.027.015-.036.006-.007.009-.01.025-.037.054-.085.111-.17.169-.253l.02-.034c.005-.003.003.001.012-.009.041-.046.085-.09.13-.131.075-.073.157-.14.243-.2.013-.01.03-.02.036-.023.055-.028.107-.06.161-.088.047-.022.093-.042.14-.062.016-.006.018-.008.02-.01.028-.007.054-.016.08-.024.057-.015.106-.045.155-.071.006-.003.011-.002.017-.005l.083-.038.084-.027c.03-.007.129-.021.149-.027.085-.002.169.005.254.01h.026c.052.012.103.026.154.042.045.014.09.032.136.05l.069.03c.06.032.12.068.177.106l.12.087c.011.01.01.007.012.008l.022.022c.07.071.135.145.197.22.012.015.012.013.019.021 0 .003-.002.001.006.015l.072.129c.013.028.052.134.06.146.022.088.039.174.055.264.002.006.003.021.004.034l-.001.16m-2.27-2.376c-.018.009-.028.025-.045.035-1.032.368-1.82 1.246-1.985 2.35-.168 1.133.518 2.258 1.53 2.743 2.264 1.081 4.94-1.789 3.748-3.98-.613-1.126-2.062-1.724-3.248-1.148M271.496 38.583c-.003.05-.008.1-.014.15l-.011.077c-.017.07-.036.138-.058.206-.016.048-.033.095-.054.142-.005.013-.02.052-.03.072-.042.084-.091.165-.144.244-.127.189-.124.187-.297.345-.073.068-.15.133-.232.19l-.026.015c-.054.03-.107.061-.161.09-.192.097-.372.154-.595.183-.09.01-.187.008-.295-.005-.025-.002-.05-.006-.076-.01-.006-.005-.098-.028-.105-.03-.036-.012-.073-.025-.109-.04l-.096-.047c-.057-.033-.113-.066-.166-.104l-.075-.058c-.025-.023-.074-.068-.07-.063-.069-.07-.132-.145-.191-.222-.005-.006-.005-.007-.01-.01-.026-.042-.05-.085-.073-.128-.039-.069-.07-.14-.1-.212l-.02-.063c-.013-.047-.025-.094-.034-.143-.008-.038-.012-.077-.018-.115-.004-.023-.006-.023-.008-.032 0-.01.003-.01.003-.034.004-.095.01-.188.022-.283l.013-.068c.018-.068.04-.136.064-.203l.045-.112c.012-.025.012-.027.015-.036.006-.007.009-.01.025-.037.054-.085.111-.17.169-.253l.02-.034c.005-.003.003.001.012-.009.041-.046.085-.09.13-.131.075-.073.157-.14.243-.2.013-.01.03-.02.036-.023.055-.028.107-.06.161-.088.047-.022.093-.042.14-.062.016-.006.018-.008.02-.01.028-.007.054-.016.08-.024.057-.015.106-.045.155-.071.006-.003.011-.002.017-.005l.083-.038.084-.027c.03-.007.129-.021.149-.027.085-.002.169.005.254.01h.026c.052.012.103.026.154.042.045.014.09.032.136.05l.069.03c.06.032.12.068.177.106l.12.087c.011.01.01.007.012.008l.022.022c.07.071.135.145.197.22.012.015.012.013.019.021 0 .003-.002.001.006.015l.072.129c.013.028.052.134.06.146.022.088.039.174.055.264.002.006.003.021.004.034l-.001.16m-2.27-2.376c-.018.009-.028.025-.045.035-1.032.368-1.82 1.246-1.985 2.35-.168 1.133.518 2.258 1.53 2.743 2.264 1.081 4.94-1.789 3.748-3.98-.613-1.126-2.062-1.724-3.248-1.148M150.496 38.583c-.003.05-.008.1-.014.15l-.011.077c-.017.07-.036.138-.058.206-.016.048-.033.095-.054.142-.005.013-.02.052-.03.072-.042.084-.091.165-.144.244-.127.189-.124.187-.297.345-.073.068-.15.133-.232.19l-.026.015c-.054.03-.107.061-.161.09-.192.097-.372.154-.595.183-.09.01-.187.008-.295-.005-.025-.002-.05-.006-.076-.01-.006-.005-.098-.028-.105-.03-.036-.012-.073-.025-.109-.04l-.096-.047c-.057-.033-.113-.066-.166-.104l-.075-.058c-.025-.023-.074-.068-.07-.063-.069-.07-.132-.145-.191-.222-.005-.006-.005-.007-.01-.01-.026-.042-.05-.085-.073-.128-.039-.069-.07-.14-.1-.212l-.02-.063c-.013-.047-.025-.094-.034-.143-.008-.038-.012-.077-.018-.115-.004-.023-.006-.023-.008-.032 0-.01.003-.01.003-.034.004-.095.01-.188.022-.283l.013-.068c.018-.068.04-.136.064-.203l.045-.112c.012-.025.012-.027.015-.036.006-.007.009-.01.025-.037.054-.085.111-.17.169-.253l.02-.034c.005-.003.003.001.012-.009.041-.046.085-.09.13-.131.075-.073.157-.14.243-.2.013-.01.03-.02.036-.023.055-.028.107-.06.161-.088.047-.022.093-.042.14-.062.016-.006.018-.008.02-.01.028-.007.054-.016.08-.024.057-.015.106-.045.155-.071.006-.003.011-.002.017-.005l.083-.038.084-.027c.03-.007.129-.021.149-.027.085-.002.169.005.254.01h.026c.052.012.103.026.154.042.045.014.09.032.136.05l.069.03c.06.032.12.068.177.106l.12.087c.011.01.01.007.012.008l.022.022c.07.071.135.145.197.22.012.015.012.013.019.021 0 .003-.002.001.006.015l.072.129c.013.028.052.134.06.146.022.088.039.174.055.264.002.006.003.021.004.034l-.001.16m-2.27-2.376c-.018.009-.028.025-.045.035-1.032.368-1.82 1.246-1.985 2.35-.168 1.133.518 2.258 1.53 2.743 2.264 1.081 4.94-1.789 3.748-3.98-.613-1.126-2.062-1.724-3.248-1.148" transform="translate(-493 -481) translate(0 439) translate(493 42.015)"/>
                        <path d="M148.543 25.9c.433.137.778-.12.951-.493l2.608-5.608c.172-.37-.14-.84-.494-.952-.433-.136-.778.121-.952.494-.87 1.868-1.738 3.739-2.607 5.608-.172.37.138.84.494.952" transform="translate(-493 -481) translate(0 439) translate(493 42.015) rotate(-14 150.075 22.374)"/>
                        <path d="M157.145 18.73c.163-.958-1.354-1.007-1.515-.058-.78 4.586-1.963 9.096-3.505 13.483-.323.922 1.124 1.378 1.447.458 1.587-4.52 2.77-9.16 3.573-13.882z" transform="translate(-493 -481) translate(0 439) translate(493 42.015) rotate(-10 154.618 25.55)"/>
                        <path d="M159.708 29.167c.442.028.732-.504.785-1.147.242-2.858.482-5.715.722-8.572.054-.64-.347-1.216-.728-1.239-.442-.025-.732.507-.787 1.148-.24 2.857-.48 5.715-.722 8.572-.052.642.348 1.216.73 1.238" transform="translate(-493 -481) translate(0 439) translate(493 42.015) rotate(-9 160.097 23.688)"/>
                        <path d="M164.933 25.734c.097.384.514.677.912.565.39-.11.668-.5.565-.912l-1.209-4.816c-.097-.386-.514-.678-.913-.566-.389.11-.667.5-.564.912l1.21 4.817M379.527 24.764c-.239-.154-.491-.23-.77-.269-.454-.065-.962.12-1.28.45-.188.197-.313.398-.414.65-.061.156-.093.332-.097.503-.071.275-.08.57-.015.84.1.414.368.833.756 1.03.295.149.595.208.923.176.263-.025.524-.098.751-.235.212-.129.403-.292.56-.485.056-.067.1-.141.145-.218.033-.055.064-.111.092-.169.006-.016.018-.029.023-.044.004-.011.004-.021.008-.032.027-.062.057-.122.076-.185.14-.477.091-1.02-.19-1.438-.155-.23-.333-.423-.568-.574M271.527 19.764c-.239-.154-.491-.23-.77-.269-.454-.065-.962.12-1.28.45-.188.197-.313.398-.414.65-.061.156-.093.332-.097.503-.071.275-.08.57-.015.84.1.414.368.833.756 1.03.295.149.595.208.923.176.263-.025.524-.098.751-.235.212-.129.403-.292.56-.485.056-.067.1-.141.145-.218.033-.055.064-.111.092-.169.006-.016.018-.029.023-.044.004-.011.004-.021.008-.032.027-.062.057-.122.076-.185.14-.477.091-1.02-.19-1.438-.155-.23-.333-.423-.568-.574M173.527 26.764c-.239-.154-.491-.23-.77-.269-.454-.065-.962.12-1.28.45-.188.197-.313.398-.414.65-.061.156-.093.332-.097.503-.071.275-.08.57-.015.84.1.414.368.833.756 1.03.295.149.595.208.923.176.263-.025.524-.098.751-.235.212-.129.403-.292.56-.485.056-.067.1-.141.145-.218.033-.055.064-.111.092-.169.006-.016.018-.029.023-.044.004-.011.004-.021.008-.032.027-.062.057-.122.076-.185.14-.477.091-1.02-.19-1.438-.155-.23-.333-.423-.568-.574M8.527 40.764c-.239-.154-.491-.23-.77-.269-.454-.065-.962.12-1.28.45-.188.197-.313.398-.414.65-.061.156-.093.332-.097.503-.071.275-.08.57-.015.84.1.414.368.833.756 1.03.295.149.595.208.923.176.263-.025.524-.098.751-.235.212-.129.403-.292.56-.485.056-.067.1-.141.145-.218.033-.055.064-.111.092-.169.006-.016.018-.029.023-.044.004-.011.004-.021.008-.032.027-.062.057-.122.076-.185.14-.477.091-1.02-.19-1.438-.155-.23-.333-.423-.568-.574M414.527 60.764c-.239-.154-.491-.23-.77-.269-.454-.065-.962.12-1.28.45-.188.197-.313.398-.414.65-.061.156-.093.332-.097.503-.071.275-.08.57-.015.84.1.414.368.833.756 1.03.295.149.595.208.923.176.263-.025.524-.098.751-.235.212-.129.403-.292.56-.485.056-.067.1-.141.145-.218.033-.055.064-.111.092-.169.006-.016.018-.029.023-.044.004-.011.004-.021.008-.032.027-.062.057-.122.076-.185.14-.477.091-1.02-.19-1.438-.155-.23-.333-.423-.568-.574M363.763 83.768c-.01-.025-.021-.05-.03-.076-.014-.045-.016-.092-.039-.134-.012-.022-.031-.039-.044-.06-.043-.074-.095-.146-.147-.212-.074-.095-.174-.172-.269-.243-.024-.018-.05-.033-.077-.048-.082-.043-.167-.086-.255-.117-.059-.02-.12-.027-.181-.037-.066-.012-.126-.025-.191-.024-.105-.008-.203.01-.295.054-.095.027-.177.076-.25.147-.02.01-.04.02-.059.033-.074.048-.156.1-.22.163-.076.078-.157.169-.208.269-.04.077-.081.159-.11.241-.02.057-.027.118-.037.177-.01.058-.023.117-.025.175-.004.092.01.186.02.276.005.026.009.053.016.078.023.087.058.172.094.253.011.024.024.046.038.068.049.072.098.152.16.215.142.137.258.208.44.282.106.044.226.06.34.07.019.002.038 0 .057 0 .008 0 .016.004.024.004.09.004.181-.011.27-.022.028-.004.055-.009.082-.016.11-.031.226-.07.324-.131.094-.06.197-.127.274-.212.135-.153.204-.254.28-.445.01-.026.019-.05.024-.076.02-.091.042-.187.043-.281.001-.093-.01-.188-.025-.28-.004-.03-.013-.06-.024-.091M331.763 79.768c-.01-.025-.021-.05-.03-.076-.014-.045-.016-.092-.039-.134-.012-.022-.031-.039-.044-.06-.043-.074-.095-.146-.147-.212-.074-.095-.174-.172-.269-.243-.024-.018-.05-.033-.077-.048-.082-.043-.167-.086-.255-.117-.059-.02-.12-.027-.181-.037-.066-.012-.126-.025-.191-.024-.105-.008-.203.01-.295.054-.095.027-.177.076-.25.147-.02.01-.04.02-.059.033-.074.048-.156.1-.22.163-.076.078-.157.169-.208.269-.04.077-.081.159-.11.241-.02.057-.027.118-.037.177-.01.058-.023.117-.025.175-.004.092.01.186.02.276.005.026.009.053.016.078.023.087.058.172.094.253.011.024.024.046.038.068.049.072.098.152.16.215.142.137.258.208.44.282.106.044.226.06.34.07.019.002.038 0 .057 0 .008 0 .016.004.024.004.09.004.181-.011.27-.022.028-.004.055-.009.082-.016.11-.031.226-.07.324-.131.094-.06.197-.127.274-.212.135-.153.204-.254.28-.445.01-.026.019-.05.024-.076.02-.091.042-.187.043-.281.001-.093-.01-.188-.025-.28-.004-.03-.013-.06-.024-.091M399.763 68.768c-.01-.025-.021-.05-.03-.076-.014-.045-.016-.092-.039-.134-.012-.022-.031-.039-.044-.06-.043-.074-.095-.146-.147-.212-.074-.095-.174-.172-.269-.243-.024-.018-.05-.033-.077-.048-.082-.043-.167-.086-.255-.117-.059-.02-.12-.027-.181-.037-.066-.012-.126-.025-.191-.024-.105-.008-.203.01-.295.054-.095.027-.177.076-.25.147-.02.01-.04.02-.059.033-.074.048-.156.1-.22.163-.076.078-.157.169-.208.269-.04.077-.081.159-.11.241-.02.057-.027.118-.037.177-.01.058-.023.117-.025.175-.004.092.01.186.02.276.005.026.009.053.016.078.023.087.058.172.094.253.011.024.024.046.038.068.049.072.098.152.16.215.142.137.258.208.44.282.106.044.226.06.34.07.019.002.038 0 .057 0 .008 0 .016.004.024.004.09.004.181-.011.27-.022.028-.004.055-.009.082-.016.11-.031.226-.07.324-.131.094-.06.197-.127.274-.212.135-.153.204-.254.28-.445.01-.026.019-.05.024-.076.02-.091.042-.187.043-.281.001-.093-.01-.188-.025-.28-.004-.03-.013-.06-.024-.091M385.943 25.106l.19-.019c-.09 0-.173.03-.256.06-.007 0-.014-.004-.02-.002-.022 0-.04.014-.061.016l.147-.055m.563.096c.02.016.04.032.059.05-.04-.032-.082-.061-.13-.084l.071.034m-1.133 1.206c.09.098.2.166.327.208.095.03.194.044.293.057.016.004.033.005.05.003l.104-.01.107-.01c.004 0 .007-.002.01-.003.038-.008.086-.03.115-.041.016-.006.078-.024.108-.043l.007-.004c.017-.012.143-.1.159-.113l.004-.003.011-.011.124-.15.003-.003.005-.008c.019-.03.04-.08.049-.1.009-.022.036-.07.046-.104l.003-.016.019-.1c.006-.034.013-.068.017-.102v-.003-.01c.002-.035-.007-.095-.008-.114-.001-.01-.003-.08-.013-.115-.02-.067-.044-.131-.073-.194l-.004-.007-.002-.003-.113-.16c-.043-.05-.173-.144-.158-.132l-.012-.008c-.011-.005-.168-.08-.18-.084l-.003-.002-.006-.001-.003-.001c-.008-.002-.193-.035-.202-.035h-.006c-.012 0-.194.017-.206.02h-.004c-.01.003-.179.066-.187.071l-.004.002c-.059.034-.116.072-.165.119l-.042.05c-.075.043-.143.092-.192.163-.069.07-.117.155-.145.253l-.035.2c-.005.136.025.266.089.386l.113.158" transform="translate(-493 -481) translate(0 439) translate(493 42.015)"/>
                        <g>
                            <path d="M4.156 15.647c.272.25.81.334 1.071 0 1.075-1.382 2.315-2.529 3.647-3.657.312-.265.272-.799 0-1.072-.31-.31-.759-.266-1.072 0-.66.558-1.868 1.698-2.473 2.292.01-.124.144-1.062.146-1.079.006-.04.733-3.821 2.841-5.917 2.109-2.096 4.52-1.88 5.398-1.974.878-.095 1.873-.06 1.84-.81-.041-.903-.591-.97-1.438-1.071-2.45-.293-4.348.366-6.314 1.881-1.816 1.4-3.042 3.387-3.738 5.555-.239.743-.492 2.063-.597 2.84-.203-.388-.892-1.698-1.068-2.1-.165-.375-.714-.46-1.037-.27-.388.225-.438.66-.273 1.035.352.804.736 1.598 1.241 2.316.527.75 1.152 1.412 1.826 2.031z" transform="translate(-493 -481) translate(0 439) translate(493 42.015) translate(383.384 24.094) rotate(-3 8.277 9.079)"/>
                            <path d="M9.942 27.248c.272.25.81.334 1.072 0 1.074-1.382 2.314-2.53 3.647-3.657.311-.265.272-.799 0-1.072-.31-.31-.76-.266-1.073 0-.66.558-1.868 1.698-2.473 2.292.01-.124.144-1.062.146-1.079.006-.04.733-3.821 2.842-5.917 2.108-2.096 4.52-1.88 5.397-1.974.878-.095 1.873-.06 1.84-.81-.04-.903-.59-.97-1.438-1.071-2.45-.294-4.348.366-6.314 1.88-1.815 1.401-3.041 3.388-3.738 5.556-.239.743-.491 2.063-.596 2.84-.204-.388-.893-1.699-1.069-2.1-.165-.375-.714-.46-1.037-.27-.387.225-.438.66-.273 1.035.353.804.736 1.598 1.241 2.316.527.75 1.153 1.411 1.826 2.031z" transform="translate(-493 -481) translate(0 439) translate(493 42.015) translate(383.384 24.094) rotate(-124 14.063 20.68)"/>
                            <path d="M17.942 16.248c.272.25.81.334 1.072 0 1.074-1.382 2.314-2.53 3.647-3.657.311-.265.272-.799 0-1.072-.31-.31-.76-.266-1.073 0-.66.558-1.868 1.698-2.473 2.292.01-.124.144-1.062.146-1.079.006-.04.733-3.821 2.842-5.917 2.108-2.096 4.52-1.88 5.397-1.974.878-.095 1.873-.06 1.84-.81-.04-.903-.59-.97-1.438-1.071-2.45-.294-4.348.366-6.314 1.88-1.815 1.401-3.041 3.388-3.738 5.556-.239.743-.491 2.063-.596 2.84-.204-.388-.893-1.699-1.069-2.1-.165-.375-.714-.46-1.037-.27-.387.225-.438.66-.273 1.035.353.804.736 1.598 1.241 2.316.527.75 1.153 1.411 1.826 2.031z" transform="translate(-493 -481) translate(0 439) translate(493 42.015) translate(383.384 24.094) rotate(118 22.063 9.68)"/>
                        </g>
                        <path d="M39.195 81.404c-1.334 1.838-4.236 2.559-5.8.548-1.856-2.384.999-5.3 2.209-7.217.726-1.147 1.28-2.428 1.778-3.71 2.136 3.006 4.266 7.003 1.813 10.38m-1.409-11.97c-.019-.037-.046-.066-.074-.098l-.045-.061c-.21-.279-.494-.272-.72-.131-.15.06-.28.18-.352.37-.676 1.828-1.425 3.658-2.553 5.256-1.606 2.274-3.756 5.485-1.522 8.116 1.708 2.01 4.759 1.951 6.696.347 2.392-1.983 2.71-5.37 1.827-8.178-.65-2.071-1.964-3.894-3.257-5.62" transform="translate(-493 -481) translate(0 439) translate(493 42.015)"/>
                        <path d="M35.598 79.05c-1.33-.049-1.411 1.95-.079 1.999 1.331.047 1.413-1.95.08-1.999M17.75 80.926c-.39.207-.923.37-1.294.049-.313-.271-.416-.729-.388-1.124.074-1.005.925-1.783 1.745-2.247.648-.366 1.342-.706 1.857-1.22.044 1.774-.275 3.668-1.92 4.542m2.696-1.315c.704-1.645.529-3.5.33-5.229-.068-.581-.873-.6-1.155-.195l-.393.561c-.015.023-.016.045-.028.068-.04.053-.081.108-.105.182-.163.489-.606.776-1.033 1.022-.53.304-1.076.567-1.567.935-1.057.79-1.841 2.058-1.673 3.413.178 1.427 1.477 2.382 2.886 1.942 1.3-.406 2.216-1.478 2.738-2.699M17.71 35.422c.147-1.474 3.822-2.81 4.98-3.584.308-.207.391-.533.333-.825.003-.029.017-.049.018-.078.084-2.686 2.194-5.18 4.939-5.417 2.747-.239 5.247 1.853 5.798 4.485.088.416.517.634.913.564 2.145-.38 4.223.72 5.19 2.653.114.23.38.4.64.4 1.51-.001 3.652-.06 4.501 1.476.966 1.751-1.268 2.892-2.595 3.332-2.985.992-6.42.946-9.535.975-3.067.028-8.503-.106-11.454-1.03-1.276-.399-3.898-1.266-3.728-2.951m.739 3.313c3.866 2.206 11.034 2.268 15.348 2.167 2.352-.055 4.764-.13 7.085-.537 1.748-.306 3.72-.871 4.963-2.222 1.11-1.206 1.227-2.911.205-4.217-1.23-1.572-3.208-1.795-5.072-1.816-1.234-2.075-3.503-3.237-5.89-3.09-.955-3.047-4-5.299-7.254-5.01-3.462.309-6.167 3.398-6.303 6.808-1.348.994-4.74 2.262-5.224 3.882-.548 1.84.628 3.17 2.142 4.035M58.24 73.852c-.07.03-.14.065-.21.096-1.917-3.385-3.758-6.812-5.532-10.276l1.989-.961c1.595 3.61 3.392 7.122 5.396 10.513-.552.19-1.1.393-1.643.628m-10.754-10.96c-.161-2.495-.315-4.992-.446-7.49 1.509-.769 3.024-1.528 4.545-2.275.113 2.566.188 5.133.222 7.701-1.432.708-2.872 1.396-4.32 2.065m-.836-15.955c1.478-.734 2.951-1.479 4.416-2.24.175 2.239.32 4.478.436 6.72-1.52.742-3.034 1.497-4.542 2.263-.113-2.247-.222-4.495-.31-6.743M40.965 65.75l.33-7.36c1.41-.751 2.825-1.493 4.244-2.227.134 2.475.281 4.949.444 7.423-1.66.747-3.334 1.469-5.018 2.164m.734-16.364c1.146-.568 2.293-1.133 3.441-1.7.092 2.255.195 4.507.31 6.76-1.362.7-2.72 1.41-4.073 2.126.106-2.395.214-4.791.322-7.186m15.745-8.215c-.064 2.478-.093 4.958-.073 7.436-1.46.681-2.916 1.372-4.366 2.073-.122-2.255-.269-4.51-.453-6.76 1.65-.88 3.283-1.793 4.892-2.749m-4.107 18.893c-.041-2.561-.115-5.122-.237-7.68 1.428-.694 2.86-1.377 4.297-2.051.04 2.491.117 4.982.242 7.471-1.424.773-2.857 1.528-4.302 2.26m16.529 8.132c-1.67 1.537-3.338 2.974-5.522 3.667-.993.315-1.988.59-2.977.887-.018-.055-.023-.106-.056-.162-2.017-3.402-3.822-6.93-5.426-10.552l3.404-1.646c.398-.191 1.014-.39 1.46-.72.402-.005.832-.324.817-.757-.213-5.927-.29-11.858-.23-17.79.003-.263-.096-.46-.242-.592 0-.003 0-.008.002-.012.022-.254-.132-.577-.359-.696-.464-.244-.93-.42-1.417-.542-.136-.069-.272-.136-.408-.203-.185-.092-.373-.11-.544-.078-.16-.031-.327-.015-.484.081-5.623 3.453-11.598 6.269-17.49 9.196-.489.243-.486.76-.246 1.114l-.76 16.98c-.342.396-.31 1.193.302 1.324.943.202 1.972.55 2.945.472.034-.002.066-.015.1-.019.072-.002.147.008.217.002.509-.044.96-.27 1.397-.525.382-.184.757-.382 1.121-.557l5.626-2.72c1.771 3.462 3.611 6.884 5.524 10.265-2.867 1.43-5.63 3.406-6.966 6.401-.412.924 1.07 1.39 1.476.477 1.582-3.544 5.907-5.604 9.306-6.828 1.847-.665 3.808-.983 5.618-1.76 1.858-.797 3.386-2.188 4.864-3.55.74-.681-.313-1.84-1.052-1.157" transform="translate(-493 -481) translate(0 439) translate(493 42.015)"/>
                        <g>
                            <path d="M7.202 3.392c.156-.19.357-.356.566-.487.475-.303 1.019-.452 1.566-.558.233-.046.512-.049.743-.116.025.072.051.144.07.213.192.673.38 1.35.557 2.028.551 2.088 1.011 4.199 1.424 6.318l-.613-.814-1.482-1.966L7.07 4.077c-.02-.026-.043-.034-.065-.056-.006-.085-.032-.166-.074-.244.071-.141.224-.33.27-.385m-1.39 1.36c.02.12.06.24.147.355l4.186 5.557.966 1.283c.324.43.626.932 1.133 1.167.413.192.922.177 1.298-.094.547-.394.39-.933.287-1.506-.405-2.208-.883-4.401-1.437-6.575-.277-1.087-.563-2.174-.885-3.247-.135-.445-.304-.875-.803-.994-.47-.111-1.066.056-1.534.138-1.037.183-2.085.545-2.854 1.293-.583.568-1.516 2.02-.503 2.623M16.48 4.41c.042-.566.095-1.129.157-1.692.031-.281.063-.562.099-.843.01-.085.002-.239.04-.328.034.017.142-.009.154-.009.396.028.739-.031 1.135.096.297.095.548.258.781.45-.42 1.48-.89 2.943-1.434 4.381-.296.782-.61 1.555-.944 2.321-.042.096-.086.191-.129.287-.019-1.555.022-3.111.14-4.664m-1.46 7.41c.06.207.196.394.443.497.988.416 1.437-.858 1.75-1.524.411-.876.803-1.76 1.168-2.656.744-1.825 1.386-3.691 1.92-5.589.137-.484.28-.87-.086-1.285-.259-.295-.598-.555-.941-.745-.696-.384-1.487-.57-2.28-.504-.885.074-1.561.424-1.713 1.356-.165 1.019-.247 2.06-.323 3.089-.174 2.33-.187 4.668-.055 7 .008.143.055.259.117.362M26.217 6.533c.582.355 1.017.891 1.261 1.525-2.014 1.126-4.057 2.195-6.12 3.229 1.6-1.604 3.217-3.193 4.859-4.754m-8.727 6.902c-.15.534.42 1.227 1.09.913 3.453-1.625 6.844-3.377 10.168-5.252.301-.17.449-.506.381-.843-.311-1.544-1.375-2.764-2.808-3.377-.24-.102-.564-.005-.745.167-2.68 2.539-5.306 5.134-7.876 7.785-.18.187-.234.403-.21.607M27.68 18.891c-.144.213-.31.403-.487.588-.061.062-.172.145-.226.223-.014-.005-.014-.01-.038-.015-.122-.158-.66-.288-.857-.374l-.858-.375-4.023-1.759c2.257-.267 4.519-.486 6.788-.625.152.807.191 1.608-.3 2.337m.936-3.895c-3.434.19-6.858.53-10.264 1.007-.027 0-.049.005-.074.009-.049.007-.098.01-.147.017-.845.12-.681 1.267.02 1.458.012.006.019.017.032.023l8.099 3.54c.615.269 1.108.315 1.634-.15.448-.397.88-.895 1.181-1.413.712-1.233.528-2.58.228-3.908-.067-.3-.384-.603-.709-.583M23.9 26.256c-.385 1.01-1.005 1.894-1.85 2.586-.48.395-1.038.72-1.62.941-.327.125-.681.222-1.027.272-.194.028-.387.044-.583.033-.08-.006-.422-.09-.347-.017-.06-.06-.097-.542-.112-.628l-.113-.63-.226-1.256-.453-2.514-.655-3.645c2.381 1.544 4.715 3.157 6.985 4.858m-8.295-6.932c-.296.133-.525.42-.452.829l1.13 6.284.526 2.934c.18.991.225 1.92 1.364 2.155 1.655.342 3.432-.435 4.725-1.425 1.265-.97 2.198-2.36 2.635-3.891.1-.348-.038-.66-.315-.87-2.835-2.145-5.758-4.168-8.765-6.065-.315-.199-.626-.134-.848.049M11.162 28.902c-.469.053-.94.017-1.402-.117-.37-.107-1-.334-1.345-.665.761-1.287 1.659-2.515 2.478-3.762l1.149-1.748c-.16 2.114-.453 4.214-.88 6.292m1.158-9.474l-4.935 7.506c-.395.6-.872 1.231-.342 1.914.343.441.893.79 1.388 1.035 1.105.543 2.345.697 3.547.414.238-.057.496-.258.55-.51.684-3.19 1.08-6.436 1.165-9.699 0-.021-.01-.035-.01-.055.221-.734-.874-1.35-1.363-.605M7.93 18.832c-1.69 1.07-3.42 2.072-5.19 3.004-.706-.664-1.084-1.587-1.106-2.548 2.098-.153 4.197-.305 6.296-.456m-5.688 4.554c.217.158.535.147.765.03 2.805-1.454 5.513-3.081 8.112-4.876.279-.192.468-.49.38-.842-.073-.299-.38-.608-.709-.585l-10.003.725c-.409.03-.77.287-.787.729-.005.14.05.283.127.413-.098 1.725.724 3.385 2.115 4.406M3.467 10.741c.128-.662.298-1.335.705-1.858l4.767 5.01c-1.913-.147-3.848-.027-5.765-.202.03-.99.106-1.98.293-2.95M2.36 15.127c2.788.389 5.661-.117 8.414.557.704.171 1.335-.66.784-1.239L4.775 7.317c-.288-.302-.648-.278-.923-.108-.105.033-.207.08-.3.149-.891.658-1.294 1.754-1.506 2.802-.279 1.377-.416 2.776-.415 4.181 0 .44.308.728.729.786M13.776 15.245c-.071.081-.146.164-.2.257-.19.328-.26.69-.193 1.065.003.017.012.033.016.05l-.003.012c.007.156.026.271.08.412.042.11.078.179.148.275.106.15.243.283.407.367.21.108.381.16.617.19.16.019.332 0 .486-.033.156-.032.314-.09.451-.17.33-.192.587-.487.708-.852.095-.29.09-.61 0-.903-.024-.095-.054-.188-.093-.287-.056-.143-.149-.276-.251-.389-.154-.167-.329-.268-.533-.358-.048-.02-.097-.038-.147-.05-.11-.023-.222-.047-.334-.052-.162-.007-.335.01-.49.061-.22.072-.395.162-.576.312-.034.029-.065.06-.093.093M12.689 47.72c.184-1.873.344-3.75.487-5.629.206-.06.471-.107.601-.114.386-.02.772-.03 1.157-.043l1.927-.066c.157 2.048.355 4.093.586 6.136l-4.758-.283m.735-9.182c.036-.017.07-.04.103-.064l.098-.004.57-.027c.367-.015.733-.031 1.099-.048l1.338-.059c.033.674.076 1.349.12 2.022l-1.948.066c-.508.018-1.02.029-1.519.105.047-.663.096-1.327.139-1.99m4.895-.971c0-.201-.087-.408-.226-.561-.043-1.125-.074-2.253-.08-3.384-.004-.972-1.52-1.036-1.514-.057.004 1.09.033 2.175.072 3.26l-1.483.066-1.23.054c-.109.005-.221.008-.332.014.098-1.644.188-3.291.264-4.94.045-.974-1.47-1.033-1.516-.057-.336 7.243-.857 14.465-1.757 21.662-.12.968 1.394 1.02 1.516.057.185-1.483.344-2.968.499-4.453l5.094.303c.14 1.172.284 2.344.436 3.516.126.966 1.602.614 1.476-.348-.636-4.893-1.176-9.77-1.406-14.684.11-.12.188-.266.187-.448" transform="translate(-493 -481) translate(0 439) translate(493 42.015) translate(67.159 22.007)"/>
                        </g>
                        <path d="M119.062 44.575c.698 2.119.716 4.444.049 6.576-.504 1.608-1.563 3.57-3.207 4.292l2.675-7.375c.334-.92-1.114-1.374-1.445-.46l-2.32 6.397c-.185-3.579 1.417-7.21 4.248-9.43m-5.087 11.928c.008.384.31.774.711.755 2.913-.14 4.819-2.68 5.729-5.225 1.045-2.923.887-6.157-.325-9-.15-.354-.704-.52-1.026-.31-4.323 2.822-6.589 8.212-5.51 13.276.058.272.223.429.42.504" transform="translate(-493 -481) translate(0 439) translate(493 42.015) rotate(41 117.198 49.944)"/>
                        <path d="M239.062 18.575c.698 2.119.716 4.444.049 6.576-.504 1.608-1.563 3.57-3.207 4.292l2.675-7.375c.334-.92-1.114-1.374-1.445-.46l-2.32 6.397c-.185-3.579 1.417-7.21 4.248-9.43m-5.087 11.928c.008.384.31.774.711.755 2.913-.14 4.819-2.68 5.729-5.225 1.045-2.923.887-6.157-.325-9-.15-.354-.704-.52-1.026-.31-4.323 2.822-6.589 8.212-5.51 13.276.058.272.223.429.42.504" transform="translate(-493 -481) translate(0 439) translate(493 42.015) matrix(0 1 1 0 213.254 -213.254)"/>
                        <g>
                            <path d="M19.88 1.787l-.098.13-.046.057c-.079.087-.155.175-.238.259-.176.178-.363.343-.561.497l-.085.064-.102.07c-.1.065-.203.127-.307.186-.211.12-.431.222-.656.316l-.079.03-.154.05c-.068.02-.137.036-.204.054v-.003c.016-.064.035-.13.056-.194.018-.053.038-.106.059-.159.008-.022.019-.047.027-.064.057-.113.12-.225.19-.33.031-.048.065-.095.098-.141l.046-.058c.084-.097.174-.19.269-.276.042-.038.085-.075.13-.11.023-.02.046-.037.07-.055.11-.07.221-.14.338-.202.055-.028.11-.055.166-.08.017-.009.103-.046.139-.062.028-.01.11-.04.122-.043.07-.023.14-.044.211-.063.132-.036.264-.064.398-.088l.183-.029.138-.014c.017 0 .035 0 .053-.002-.055.086-.103.177-.163.26m-5.924 13.39c.897-.309 1.839-.362 2.778-.313-1.231 1.437-3.128 2.287-5.022 2.137.453-.87 1.334-1.513 2.244-1.824m8.005-14.133c.172-.504-.223-.924-.694-.987-1.382-.184-2.834.064-3.964.911-.82.615-1.36 1.554-1.479 2.556-.064.037-.128.073-.187.14-1.24 1.41-2.299 2.952-3.188 4.58-.233-1.204-.664-2.373-1.293-3.424-.366-.61-.792-1.192-1.268-1.721-.467-.517-1.037-1.146-1.686-1.424-.758-.326-1.544.065-1.802.837-.215.643-.104 1.402.013 2.052.231 1.288.809 2.49 1.594 3.529.851 1.124 2 1.985 3.295 2.535-1.218 2.905-1.897 6.022-1.99 9.173-.975-1.188-2.381-2.005-3.951-2.173-.679-.073-1.396.064-1.786.68-.321.508-.302 1.18-.123 1.733.365 1.134 1.144 2.1 2.071 2.827 1.014.796 2.298 1.258 3.584 1.3.16.005.304-.053.432-.137.126.9.294 1.798.52 2.687.242.943 1.72.601 1.477-.348-.668-2.609-.86-5.306-.628-7.961 3.075.499 6.356-.982 7.837-3.771.285-.537-.023-1.084-.611-1.165-1.644-.227-3.344-.241-4.91.368-.658.256-1.252.624-1.762 1.084.85-3.577 2.517-6.957 4.917-9.798.047.008.088.03.138.027 2.445-.152 4.648-1.776 5.444-4.11" transform="translate(-493 -481) translate(0 439) translate(493 42.015) translate(14.893 44.682)"/>
                            <path d="M18.504 6.967c-.116-.073-.241-.112-.379-.118l-.237-.01c-.104-.007-.202.011-.294.055-.095.028-.178.076-.25.148-.077.066-.132.145-.166.238-.05.088-.077.185-.077.289l.02.202c.03.13.091.244.182.342l.15.124c.114.074.24.113.377.118l.238.01c.104.007.203-.01.294-.054.096-.028.179-.077.25-.148.076-.066.132-.145.166-.238.05-.088.076-.184.076-.29l-.02-.202c-.03-.13-.091-.243-.181-.341l-.149-.125M16.396 21.295l.005-.148c.037-.974-1.478-1.034-1.516-.058 0 .05-.003.098-.005.148-.037.975 1.478 1.034 1.516.058M5.234 13.26c.115.073.242.113.38.119l.236.008c.104.008.203-.01.294-.054.096-.027.179-.076.25-.147.077-.066.132-.145.166-.238.05-.088.076-.185.077-.289l-.02-.202c-.031-.13-.092-.245-.182-.342l-.149-.124c-.115-.074-.241-.113-.378-.118l-.238-.01c-.104-.008-.202.01-.294.054-.095.027-.178.077-.25.148-.077.065-.131.145-.166.238-.05.088-.077.184-.077.29l.02.202c.03.129.093.243.183.341l.148.125M.862 24.227c-.105.015-.205.06-.301.11-.095.047-.183.12-.26.2-.054.055-.1.126-.145.192-.02.03-.037.061-.052.095-.08.185-.131.342-.089.562.016.083.043.163.074.239.028.071.072.136.112.197.017.023.033.044.051.064.116.119.201.185.347.25.022.011.045.019.067.024.07.019.142.035.214.043.197.02.39-.038.569-.13.158-.083.322-.25.402-.433.027-.062.067-.148.082-.224.005-.018.005-.038.009-.057.035-.08.059-.167.058-.26l-.014-.174c-.023-.112-.066-.21-.133-.294-.062-.097-.148-.182-.238-.242-.09-.062-.19-.118-.292-.142-.07-.016-.15-.036-.224-.04-.078-.004-.161.01-.237.02" transform="translate(-493 -481) translate(0 439) translate(493 42.015) translate(14.893 44.682)"/>
                        </g>
                        <path d="M58.343 25.471c.649-.294 1.399-.528 2.113-.576h.141c-.008.143.03.303.034.447.013.42-.008.84-.067 1.256-.218 1.515-.983 2.955-2.116 3.978-.976.882-2.197 1.444-3.483 1.646 1.074-1.384 2.201-2.679 3.453-3.949.279-.282.34-.774.04-1.071-.281-.278-.773-.342-1.07-.04-1.133 1.149-2.185 2.373-3.194 3.632.413-2.303 1.947-4.325 4.149-5.323m-5.665 7.95c.095.633.756.692 1.163.393 4.086.021 7.59-2.963 8.217-7.011.067-.44.1-.884.09-1.33-.011-.52-.012-1.137-.35-1.565-.644-.817-1.894-.513-2.757-.284-1.907.51-3.608 1.66-4.79 3.241-1.393 1.868-1.913 4.27-1.573 6.557" transform="translate(-493 -481) translate(0 439) translate(493 42.015) rotate(-12 57.364 28.68)"/>
                        <path d="M106.132 35.657c.657-.115.759-.898.412-1.35-1.498-1.956 2.03-2.897 3.254-2.974.13-.008.245-.041.346-.092.393-.002.786-.244.81-.752.1-2.106 1.768-4.03 3.934-4.152 2.185-.122 4.016 1.615 4.374 3.69.061.352.422.615.765.63 1.602.07 4.21.37 4.237 2.501.006.527.465.951 1.003.826 1.38-.318 3.142.168 3.297 1.808.157 1.681-1.53 1.983-2.803 2.295-2.925.713-5.89 1.262-8.876 1.644-2.951.376-5.952.627-8.929.618-1.27-.005-2.84-.08-3.572-1.3-.898-1.49.173-3.113 1.748-3.392m-1.603 5.686c1.677.892 3.821.654 5.645.579 2.369-.097 4.734-.3 7.085-.6 2.436-.311 4.858-.734 7.255-1.265 1.631-.363 3.967-.585 5.05-2.037.891-1.194.844-2.924-.004-4.125-.876-1.239-2.343-1.717-3.788-1.623-.548-2.187-2.892-3.004-5.078-3.206-.738-2.577-3.22-4.538-5.963-4.354-2.728.182-4.875 2.41-5.313 5.023-1.46.128-2.994.47-3.96 1.66-.715.88-.941 1.968-.646 2.971-2.8 1.246-3.284 5.381-.283 6.977" transform="translate(-493 -481) translate(0 439) translate(493 42.015) rotate(6 116.35 33.354)"/>
                        <path d="M57.999 15.862c-.002.033-.005.066-.01.099 0 .009-.005.036-.007.05-.01.045-.022.09-.038.134l-.033.093-.02.046c-.029.055-.06.108-.094.16-.083.123-.081.122-.194.225-.047.044-.098.086-.151.124l-.017.01c-.036.02-.07.04-.106.058-.125.064-.242.101-.387.12-.06.007-.121.005-.192-.002l-.049-.008c-.005-.003-.064-.018-.069-.02-.024-.007-.048-.016-.071-.025l-.063-.031c-.037-.022-.074-.043-.108-.068l-.048-.037-.046-.042c-.045-.046-.086-.095-.126-.145l-.005-.007c-.017-.027-.033-.054-.048-.082-.024-.046-.045-.092-.065-.14l-.013-.04c-.009-.031-.016-.062-.022-.093l-.013-.076-.004-.02.002-.023c.002-.062.006-.122.014-.184.003-.015.006-.037.009-.045.011-.044.025-.089.042-.132l.029-.074.01-.023.015-.024.11-.166.014-.021.008-.006c.026-.03.054-.059.083-.087.05-.046.103-.091.16-.13l.023-.014c.035-.019.07-.04.105-.058l.091-.04.014-.007.052-.015c.037-.01.068-.03.1-.047.004-.002.008-.001.011-.004-.001.002.034-.014.054-.024.022-.006.057-.018.056-.018.019-.004.083-.013.096-.017.056-.002.11.003.165.006h.018c.033.008.067.017.1.028.03.009.06.02.09.032l.043.02c.04.021.079.044.116.069.027.018.053.037.078.057.008.006.006.004.009.005l.013.015c.046.046.088.094.129.143l.012.014.003.01c.017.027.033.054.047.083.01.019.035.088.04.096.015.058.026.114.036.172l.002.023v.103m.791-.895c-.437-.807-1.474-1.235-2.321-.822-.013.006-.02.018-.032.025-.738.264-1.302.893-1.419 1.683-.12.811.37 1.617 1.093 1.963 1.618.776 3.531-1.28 2.679-2.85M183.999 31.862c-.002.033-.005.066-.01.099 0 .009-.005.036-.007.05-.01.045-.022.09-.038.134l-.033.093-.02.046c-.029.055-.06.108-.094.16-.083.123-.081.122-.194.225-.047.044-.098.086-.151.124l-.017.01c-.036.02-.07.04-.106.058-.125.064-.242.101-.387.12-.06.007-.121.005-.192-.002l-.049-.008c-.005-.003-.064-.018-.069-.02-.024-.007-.048-.016-.071-.025l-.063-.031c-.037-.022-.074-.043-.108-.068l-.048-.037-.046-.042c-.045-.046-.086-.095-.126-.145l-.005-.007c-.017-.027-.033-.054-.048-.082-.024-.046-.045-.092-.065-.14l-.013-.04c-.009-.031-.016-.062-.022-.093l-.013-.076-.004-.02.002-.023c.002-.062.006-.122.014-.184.003-.015.006-.037.009-.045.011-.044.025-.089.042-.132l.029-.074.01-.023.015-.024.11-.166.014-.021.008-.006c.026-.03.054-.059.083-.087.05-.046.103-.091.16-.13l.023-.014c.035-.019.07-.04.105-.058l.091-.04.014-.007.052-.015c.037-.01.068-.03.1-.047.004-.002.008-.001.011-.004-.001.002.034-.014.054-.024.022-.006.057-.018.056-.018.019-.004.083-.013.096-.017.056-.002.11.003.165.006h.018c.033.008.067.017.1.028.03.009.06.02.09.032l.043.02c.04.021.079.044.116.069.027.018.053.037.078.057.008.006.006.004.009.005l.013.015c.046.046.088.094.129.143l.012.014.003.01c.017.027.033.054.047.083.01.019.035.088.04.096.015.058.026.114.036.172l.002.023v.103m.791-.895c-.437-.807-1.474-1.235-2.321-.822-.013.006-.02.018-.032.025-.738.264-1.302.893-1.419 1.683-.12.811.37 1.617 1.093 1.963 1.618.776 3.531-1.28 2.679-2.85M127.254 20.81c-.138-.085-.285-.127-.446-.147-.263-.036-.557.065-.74.245-.11.107-.183.217-.24.354-.037.085-.055.181-.057.274-.042.15-.047.31-.009.458.058.225.213.454.438.56.17.082.344.114.535.097.152-.014.303-.053.434-.128.123-.07.233-.16.324-.264.033-.037.059-.077.084-.12.02-.03.037-.06.054-.091.003-.009.01-.016.013-.024.003-.006.003-.012.005-.018.015-.034.033-.066.044-.1.08-.26.052-.557-.11-.784-.09-.125-.193-.23-.33-.313" transform="translate(-493 -481) translate(0 439) translate(493 42.015)"/>
                        <path stroke="#887168" stroke-width=".2" d="M143.396 34.48c-1.334 1.837-4.236 2.558-5.8.547-1.856-2.385.999-5.3 2.209-7.218.726-1.146 1.28-2.428 1.778-3.71 2.136 3.007 4.266 7.004 1.813 10.38m-1.409-11.969c-.019-.037-.046-.066-.074-.099l-.045-.06c-.21-.28-.494-.272-.72-.132-.15.061-.28.18-.352.371-.676 1.828-1.425 3.658-2.553 5.256-1.606 2.274-3.756 5.485-1.522 8.116 1.708 2.01 4.759 1.951 6.696.347 2.392-1.984 2.71-5.371 1.827-8.178-.65-2.071-1.964-3.894-3.257-5.62M264.309 32.822c-.923 2.075-3.612 3.384-5.56 1.742-2.31-1.947-.125-5.392.66-7.52.472-1.271.748-2.64.968-3.998 2.714 2.497 5.629 5.964 3.932 9.776m-3.867-11.414c-.026-.033-.06-.056-.093-.082l-.057-.05c-.262-.229-.54-.163-.731.022-.135.09-.236.234-.267.436-.281 1.928-.634 3.873-1.405 5.671-1.098 2.559-2.534 6.146.198 8.256 2.09 1.611 5.061.918 6.622-1.053 1.928-2.438 1.535-5.817.088-8.38-1.068-1.89-2.731-3.4-4.355-4.82" transform="translate(-493 -481) translate(0 439) translate(493 42.015)"/>
                        <path d="M139.8 32.125c-1.332-.05-1.412 1.949-.08 1.998 1.331.048 1.413-1.95.08-1.998" transform="translate(-493 -481) translate(0 439) translate(493 42.015)"/>
                        <path d="M133.95 26.001c-.39.206-.922.37-1.293.049-.313-.271-.416-.73-.388-1.124.074-1.005.925-1.784 1.745-2.248.648-.365 1.342-.705 1.857-1.22.044 1.774-.275 3.669-1.92 4.543m2.696-1.315c.704-1.646.529-3.5.33-5.23-.068-.58-.873-.599-1.155-.194l-.393.56c-.015.024-.016.046-.028.068-.04.054-.081.109-.105.182-.163.49-.606.777-1.034 1.022-.53.305-1.075.568-1.566.935-1.057.79-1.841 2.059-1.673 3.414.178 1.427 1.477 2.382 2.886 1.942 1.3-.406 2.215-1.478 2.738-2.699" transform="translate(-493 -481) translate(0 439) translate(493 42.015) rotate(4 134.076 23.24)"/>
                        <path d="M85.346 78.918c-.177.022-.344.087-.507.157-.16.068-.308.174-.439.287-.09.08-.169.181-.243.276-.034.043-.063.088-.088.137-.135.265-.222.49-.151.806.026.118.073.234.124.343.048.102.123.195.19.283.028.033.055.063.086.09.195.172.339.267.586.36.037.016.074.027.113.035.118.026.24.05.36.06.332.03.658-.054.959-.186.267-.119.544-.36.678-.62.047-.089.113-.213.14-.322.007-.026.008-.054.014-.081.06-.115.099-.24.098-.374l-.023-.25c-.039-.16-.112-.3-.225-.421-.104-.14-.25-.261-.401-.348-.15-.09-.32-.169-.493-.203-.119-.024-.253-.052-.378-.057-.132-.006-.271.013-.4.028" transform="translate(-493 -481) translate(0 439) translate(493 42.015)"/>
                        <path d="M58.18 84.93l-.004.147c-.038.975 1.478 1.035 1.514.058l.006-.147c.038-.975-1.478-1.035-1.515-.058" transform="translate(-493 -481) translate(0 439) translate(493 42.015) rotate(-13 58.936 85.032)"/>
                        <path d="M129.097 51.23l-.024-.062c.022.038.034.082.062.117l-.038-.055m-.07.166c-.02-.05-.038-.102-.057-.151.017.081.056.15.104.216-.016-.021-.03-.044-.047-.065m.152.49c.003 0 .006.002.008.004.005.004.174.081.179.084l.004.001.01.003.006.002c.036.008.168.032.204.035h.026c.043-.002.164-.014.206-.02h.009l.018-.004.014-.005c.032-.01.156-.057.186-.07l.006-.002c.037-.017.074-.05.104-.072.028-.018.072-.046.1-.073.002-.004.006-.008.01-.01.025-.03.102-.121.125-.152l.007-.008.014-.026c.03-.056.063-.128.087-.186l.007-.016.01-.03c.008-.038.014-.08.02-.115.005-.036.014-.077.02-.116.007-.059-.004-.12-.01-.177-.006-.06-.007-.12-.025-.177-.012-.037-.027-.075-.04-.109-.013-.034-.027-.073-.042-.108-.005-.011-.01-.023-.018-.034l-.01-.018c-.038-.056-.08-.115-.122-.17-.007-.01-.016-.02-.028-.03-.064-.077-.144-.132-.237-.166-.088-.051-.185-.076-.29-.076-.103-.007-.202.01-.293.054-.095.028-.18.076-.251.148l-.124.148c-.039.061-.043.134-.062.2l-.037.044-.014.018c-.004.007-.008.013-.01.02-.034.064-.065.13-.093.198-.006.014-.01.029-.014.044-.014.064-.026.144-.035.208l-.002.011v.027c.002.031.014.176.019.205v.008l.004.01.031.085c.01.025.033.088.042.106.032.062.073.12.12.171l.006.006c.007.008.052.046.088.077l.006.004.035.028c.01.007.02.017.026.02M94.097 55.23l-.024-.062c.022.038.034.082.062.117l-.038-.055m-.07.166c-.02-.05-.038-.102-.057-.151.017.081.056.15.104.216-.016-.021-.03-.044-.047-.065m.152.49c.003 0 .006.002.008.004.005.004.174.081.179.084l.004.001.01.003.006.002c.036.008.168.032.204.035h.026c.043-.002.164-.014.206-.02h.009l.018-.004.014-.005c.032-.01.156-.057.186-.07l.006-.002c.037-.017.074-.05.104-.072.028-.018.072-.046.1-.073.002-.004.006-.008.01-.01.025-.03.102-.121.125-.152l.007-.008.014-.026c.03-.056.063-.128.087-.186l.007-.016.01-.03c.008-.038.014-.08.02-.115.005-.036.014-.077.02-.116.007-.059-.004-.12-.01-.177-.006-.06-.007-.12-.025-.177-.012-.037-.027-.075-.04-.109-.013-.034-.027-.073-.042-.108-.005-.011-.01-.023-.018-.034l-.01-.018c-.038-.056-.08-.115-.122-.17-.007-.01-.016-.02-.028-.03-.064-.077-.144-.132-.237-.166-.088-.051-.185-.076-.29-.076-.103-.007-.202.01-.293.054-.095.028-.18.076-.251.148l-.124.148c-.039.061-.043.134-.062.2l-.037.044-.014.018c-.004.007-.008.013-.01.02-.034.064-.065.13-.093.198-.006.014-.01.029-.014.044-.014.064-.026.144-.035.208l-.002.011v.027c.002.031.014.176.019.205v.008l.004.01.031.085c.01.025.033.088.042.106.032.062.073.12.12.171l.006.006c.007.008.052.046.088.077l.006.004.035.028c.01.007.02.017.026.02M109.097 20.23l-.024-.062c.022.038.034.082.062.117l-.038-.055m-.07.166c-.02-.05-.038-.102-.057-.151.017.081.056.15.104.216-.016-.021-.03-.044-.047-.065m.152.49c.003 0 .006.002.008.004.005.004.174.081.179.084l.004.001.01.003.006.002c.036.008.168.032.204.035h.026c.043-.002.164-.014.206-.02h.009l.018-.004.014-.005c.032-.01.156-.057.186-.07l.006-.002c.037-.017.074-.05.104-.072.028-.018.072-.046.1-.073.002-.004.006-.008.01-.01.025-.03.102-.121.125-.152l.007-.008.014-.026c.03-.056.063-.128.087-.186l.007-.016.01-.03c.008-.038.014-.08.02-.115.005-.036.014-.077.02-.116.007-.059-.004-.12-.01-.177-.006-.06-.007-.12-.025-.177-.012-.037-.027-.075-.04-.109-.013-.034-.027-.073-.042-.108-.005-.011-.01-.023-.018-.034l-.01-.018c-.038-.056-.08-.115-.122-.17-.007-.01-.016-.02-.028-.03-.064-.077-.144-.132-.237-.166-.088-.051-.185-.076-.29-.076-.103-.007-.202.01-.293.054-.095.028-.18.076-.251.148l-.124.148c-.039.061-.043.134-.062.2l-.037.044-.014.018c-.004.007-.008.013-.01.02-.034.064-.065.13-.093.198-.006.014-.01.029-.014.044-.014.064-.026.144-.035.208l-.002.011v.027c.002.031.014.176.019.205v.008l.004.01.031.085c.01.025.033.088.042.106.032.062.073.12.12.171l.006.006c.007.008.052.046.088.077l.006.004.035.028c.01.007.02.017.026.02M98.836 49.718l.06-.129.09-.108c-.061.072-.12.146-.15.237m-.03.274l-.009-.086c.01-.056.02-.112.028-.167l.001-.001c-.029.084-.03.169-.02.254m1.494-.146c-.002-.034-.006-.069-.01-.104 0-.007-.002-.014-.004-.022-.01-.03-.034-.088-.036-.095-.003-.01-.023-.067-.038-.096 0-.006-.003-.009-.006-.013 0-.003-.003-.006-.005-.009-.023-.036-.088-.126-.114-.16l-.003-.004-.017-.019c-.053-.048-.107-.096-.165-.137l-.022-.014c-.032-.017-.069-.033-.1-.047-.03-.014-.065-.032-.1-.045-.006-.004-.016-.007-.024-.01-.08-.023-.164-.037-.247-.043h-.025c-.037.001-.078.007-.112.01-.031.003-.078.005-.114.011-.007.002-.015.003-.022.006l-.005.002c-.044.015-.145.053-.187.07l-.012.005c-.034.017-.075.053-.096.068-.029.02-.07.043-.097.072-.123.13-.166.194-.23.363l-.006.025c.003-.017-.038.156-.036.223.005.186.02.26.098.427l.01.02c.038.059.078.123.127.175l.007.008.004.004c.04.035.11.092.152.127l.021.015c.069.042.145.076.222.103l.024.008c.004 0 .008 0 .012.002.057.011.145.026.203.035l.01.001c.008.002.018.002.027.002.077 0 .153-.01.229-.02l.026-.006c.071-.021.14-.045.206-.079.064-.031.133-.088.178-.124l.019-.018c.106-.12.187-.213.23-.373.01-.036.015-.08.02-.113.004-.023.016-.074.018-.11v-.017l-.01-.104M105.716 51.122c-.128-.168-.303-.266-.491-.349-.184-.08-.414-.084-.609-.04-.09.02-.18.053-.26.099-.03.017-.047.035-.072.052-.149.049-.285.12-.406.225-.033.029-.06.067-.087.1-.027.031-.062.067-.084.104-.054.085-.098.18-.12.279-.05.223-.063.456.014.676.056.164.116.31.215.451.062.089.126.192.2.277l.075.062c.07.07.154.118.252.145.34.107.126.03.215.034.086.003.178-.014.266-.027.147-.022.296-.08.43-.144.13-.062.256-.15.358-.252.157-.156.257-.315.336-.52.078-.2.075-.418.04-.625-.037-.209-.145-.383-.272-.547M71.46 58.241c0 .008-.003.025-.006.042-.014.062-.028.124-.047.185-.017.058-.037.115-.058.171-.006.017-.027.063-.037.086-.037.077-.08.152-.125.225-.032.051-.067.102-.103.151l-.056.074c-.074.086-.153.168-.237.245-.202.184-.198.183-.446.318-.104.059-.213.111-.326.156l-.034.01c-.072.02-.142.042-.214.059-.253.058-.48.074-.747.043-.11-.012-.22-.043-.344-.088-.028-.01-.057-.022-.084-.034-.007-.007-.107-.06-.115-.065-.04-.024-.079-.05-.116-.078-.01-.006-.085-.072-.1-.083-.056-.054-.112-.109-.163-.168l-.072-.09-.064-.094c-.06-.101-.112-.207-.16-.314l-.007-.015c-.019-.056-.036-.112-.05-.169-.024-.09-.04-.184-.055-.277l-.007-.079c-.002-.058 0-.117.001-.175.002-.048.007-.094.011-.14.003-.03.001-.03 0-.041.005-.01.007-.01.015-.038.031-.11.064-.217.106-.323.01-.026.027-.063.035-.077.04-.075.085-.148.133-.218.027-.04.056-.08.084-.119.02-.026.02-.029.028-.038l.04-.035c.087-.086.177-.167.27-.25l.033-.032c.006-.002.001.001.016-.009.06-.041.124-.08.188-.116.109-.062.224-.118.342-.164l.049-.015c.07-.018.141-.04.213-.056.06-.014.121-.024.181-.034l.027-.005.101-.005c.07-.003.135-.023.2-.04.008-.002.015 0 .02-.001-.003 0 .069-.011.11-.02l.105-.008c.037 0 .157.012.181.01.1.023.196.055.294.084l.03.01c.057.027.114.058.167.091.05.03.1.063.147.098l.07.054c.062.056.122.113.178.175.04.044.077.09.115.136.011.015.009.01.013.014l.018.032c.062.102.115.205.168.313l.015.03c0 .004-.002 0 .003.018.017.056.034.113.047.17.009.038.023.173.029.19.002.109-.003.215-.01.323m-2.026-3.196c-.023.005-.04.021-.063.028-1.31.136-2.482.936-2.989 2.179-.521 1.275-.04 2.785 1.003 3.64 2.336 1.911 6.284-.678 5.515-3.579-.393-1.49-1.917-2.602-3.466-2.268M71.371 79.11c-.003.06-.009.121-.017.18l-.013.093c-.02.084-.041.166-.07.247-.018.058-.04.114-.062.172l-.038.085c-.051.101-.11.2-.173.294-.152.227-.15.225-.356.416-.088.08-.181.158-.28.227l-.032.018c-.064.037-.127.074-.194.108-.23.118-.447.186-.715.22-.11.014-.224.01-.354-.003l-.09-.014c-.01-.005-.119-.034-.128-.036-.044-.015-.088-.03-.131-.047-.011-.004-.101-.052-.116-.058-.068-.04-.136-.079-.2-.124.007.004-.056-.046-.088-.07l-.085-.077c-.083-.084-.16-.175-.232-.267l-.01-.013c-.031-.05-.06-.1-.089-.151-.044-.084-.083-.17-.12-.257-.007-.024-.02-.059-.023-.075-.017-.057-.03-.113-.04-.17-.011-.047-.017-.094-.024-.14l-.008-.039c0-.01.002-.01.003-.04.004-.114.01-.227.026-.34.005-.027.012-.068.016-.083.021-.082.047-.163.078-.243.016-.046.035-.09.054-.136.013-.03.013-.033.017-.043.006-.008.01-.012.03-.044.066-.104.133-.204.202-.306.019-.025.02-.027.027-.04.004-.002.002.002.013-.01.048-.055.1-.108.154-.16.092-.085.19-.168.295-.24l.043-.025c.065-.034.127-.074.194-.106.055-.028.111-.05.168-.076.02-.007.022-.01.025-.011l.096-.029c.068-.019.126-.054.185-.086.007-.003.014-.002.02-.007-.003.003.063-.027.1-.045.04-.011.105-.032.103-.032.035-.008.153-.026.178-.033.102-.003.203.006.304.011l.032.002c.062.014.125.03.184.05.057.017.111.037.166.06.016.006.059.026.08.036.075.04.146.08.215.127.05.034.097.07.144.106.014.01.012.008.016.01l.025.027c.084.085.162.172.238.264l.022.025c0 .003-.002.001.006.017.031.05.06.101.087.155.017.033.064.16.073.177.027.105.048.209.066.316.002.008.003.025.004.042.002.063.002.127 0 .19m1.176-1.475c-.736-1.355-2.48-2.073-3.906-1.381-.022.011-.033.03-.053.042-1.242.443-2.191 1.5-2.388 2.827-.202 1.362.622 2.716 1.839 3.297 2.723 1.302 5.942-2.15 4.508-4.785M12.201 54.11c-.003.06-.009.121-.017.18l-.013.093c-.02.084-.042.166-.07.247-.018.058-.04.114-.063.172l-.037.085c-.052.101-.11.2-.173.294-.153.227-.15.225-.357.416-.088.08-.18.158-.28.227-.01.006-.015.01-.031.018-.065.037-.127.074-.194.108-.23.118-.447.186-.715.22-.11.014-.224.01-.355-.003l-.09-.014c-.009-.005-.118-.034-.127-.036-.045-.015-.088-.03-.131-.047-.012-.004-.102-.052-.117-.058-.067-.04-.135-.079-.199-.124.006.004-.056-.046-.089-.07l-.085-.077c-.083-.084-.158-.175-.231-.267l-.01-.013c-.032-.05-.06-.1-.09-.151-.044-.084-.082-.17-.119-.257-.008-.024-.02-.059-.024-.075-.016-.057-.03-.113-.04-.17-.01-.047-.016-.094-.023-.14l-.009-.039c.001-.01.002-.01.003-.04.005-.114.012-.227.027-.34.005-.027.012-.068.016-.083.021-.082.046-.163.078-.243.016-.046.035-.09.053-.136l.018-.043c.006-.008.01-.012.029-.044.067-.104.133-.204.203-.306.018-.025.02-.027.026-.04.004-.002.002.002.013-.01.049-.055.102-.108.155-.16.092-.085.19-.168.294-.24l.044-.025c.064-.034.127-.074.194-.106.054-.028.111-.05.168-.076.019-.007.022-.01.025-.011l.096-.029c.068-.019.125-.054.185-.086.007-.003.014-.002.02-.007-.003.003.063-.027.1-.045.04-.011.104-.032.102-.032.036-.008.154-.026.178-.033.102-.003.203.006.304.011l.033.002c.062.014.124.03.184.05.056.017.111.037.166.06.016.006.058.026.08.036.074.04.146.08.215.127.05.034.097.07.143.106.014.01.012.008.016.01l.026.027c.084.085.161.172.237.264.014.017.014.015.023.025 0 .003-.002.001.006.017.031.05.06.101.087.155.017.033.063.16.072.177.028.105.049.209.067.316.002.008.003.025.004.042.002.063.002.127 0 .19m1.176-1.475c-.736-1.355-2.48-2.073-3.906-1.381-.022.011-.034.03-.054.042-1.241.443-2.19 1.5-2.387 2.827-.203 1.362.621 2.716 1.838 3.297 2.724 1.302 5.943-2.15 4.509-4.785" transform="translate(-493 -481) translate(0 439) translate(493 42.015)"/>
                        <path d="M4.946 65.462c1.357-1.095 3.093-1.663 4.819-1.882-.207 1.748-1.005 3.4-2.306 4.61-1.016.944-2.282 1.555-3.624 1.819 1.183-1.124 2.365-2.25 3.548-3.372.707-.674-.322-1.787-1.03-1.113l-3.705 3.522c.312-1.409 1.157-2.662 2.298-3.584m-3.18 6.197c2.44.166 4.93-.688 6.724-2.357 1.794-1.669 2.835-4.082 2.848-6.529.002-.377-.309-.815-.73-.786-2.402.163-4.792.828-6.693 2.363-1.787 1.444-3 3.704-2.91 6.03.003.117.03.22.073.31-.119.436.18.933.689.969" transform="translate(-493 -481) translate(0 439) translate(493 42.015) rotate(-100 6.169 66.832)"/>
                        <path d="M136.527 44.764c-.239-.154-.491-.23-.77-.269-.454-.065-.962.12-1.28.45-.188.197-.313.398-.414.65-.061.156-.093.332-.097.503-.071.275-.08.57-.015.84.1.414.368.833.756 1.03.295.149.595.208.923.176.263-.025.524-.098.751-.235.212-.129.403-.292.56-.485.056-.067.1-.141.145-.218.033-.055.064-.111.092-.169.006-.016.018-.029.023-.044.004-.011.004-.021.008-.032.027-.062.057-.122.076-.185.14-.477.091-1.02-.19-1.438-.155-.23-.333-.423-.568-.574M103.527 21.764c-.239-.154-.491-.23-.77-.269-.454-.065-.962.12-1.28.45-.188.197-.313.398-.414.65-.061.156-.093.332-.097.503-.071.275-.08.57-.015.84.1.414.368.833.756 1.03.295.149.595.208.923.176.263-.025.524-.098.751-.235.212-.129.403-.292.56-.485.056-.067.1-.141.145-.218.033-.055.064-.111.092-.169.006-.016.018-.029.023-.044.004-.011.004-.021.008-.032.027-.062.057-.122.076-.185.14-.477.091-1.02-.19-1.438-.155-.23-.333-.423-.568-.574M92.763 63.768c-.01-.025-.021-.05-.03-.076-.014-.045-.016-.092-.039-.134-.012-.022-.031-.039-.044-.06-.043-.074-.095-.146-.147-.212-.074-.095-.174-.172-.269-.243-.024-.018-.05-.033-.077-.048-.082-.043-.167-.086-.255-.117-.059-.02-.12-.027-.181-.037-.066-.012-.126-.025-.191-.024-.105-.008-.203.01-.295.054-.095.027-.177.076-.25.147-.02.01-.04.02-.059.033-.074.048-.156.1-.22.163-.076.078-.157.169-.208.269-.04.077-.081.159-.11.241-.02.057-.027.118-.037.177-.01.058-.023.117-.025.175-.004.092.01.186.02.276.005.026.009.053.016.078.023.087.058.172.094.253.011.024.024.046.038.068.049.072.098.152.16.215.142.137.258.208.44.282.106.044.226.06.34.07.019.002.038 0 .057 0 .008 0 .016.004.024.004.09.004.181-.011.27-.022.028-.004.055-.009.082-.016.11-.031.226-.07.324-.131.094-.06.197-.127.274-.212.135-.153.204-.254.28-.445.01-.026.019-.05.024-.076.02-.091.042-.187.043-.281.001-.093-.01-.188-.025-.28-.004-.03-.013-.06-.024-.091M177.763 22.768c-.01-.025-.021-.05-.03-.076-.014-.045-.016-.092-.039-.134-.012-.022-.031-.039-.044-.06-.043-.074-.095-.146-.147-.212-.074-.095-.174-.172-.269-.243-.024-.018-.05-.033-.077-.048-.082-.043-.167-.086-.255-.117-.059-.02-.12-.027-.181-.037-.066-.012-.126-.025-.191-.024-.105-.008-.203.01-.295.054-.095.027-.177.076-.25.147-.02.01-.04.02-.059.033-.074.048-.156.1-.22.163-.076.078-.157.169-.208.269-.04.077-.081.159-.11.241-.02.057-.027.118-.037.177-.01.058-.023.117-.025.175-.004.092.01.186.02.276.005.026.009.053.016.078.023.087.058.172.094.253.011.024.024.046.038.068.049.072.098.152.16.215.142.137.258.208.44.282.106.044.226.06.34.07.019.002.038 0 .057 0 .008 0 .016.004.024.004.09.004.181-.011.27-.022.028-.004.055-.009.082-.016.11-.031.226-.07.324-.131.094-.06.197-.127.274-.212.135-.153.204-.254.28-.445.01-.026.019-.05.024-.076.02-.091.042-.187.043-.281.001-.093-.01-.188-.025-.28-.004-.03-.013-.06-.024-.091M246.763 29.768c-.01-.025-.021-.05-.03-.076-.014-.045-.016-.092-.039-.134-.012-.022-.031-.039-.044-.06-.043-.074-.095-.146-.147-.212-.074-.095-.174-.172-.269-.243-.024-.018-.05-.033-.077-.048-.082-.043-.167-.086-.255-.117-.059-.02-.12-.027-.181-.037-.066-.012-.126-.025-.191-.024-.105-.008-.203.01-.295.054-.095.027-.177.076-.25.147-.02.01-.04.02-.059.033-.074.048-.156.1-.22.163-.076.078-.157.169-.208.269-.04.077-.081.159-.11.241-.02.057-.027.118-.037.177-.01.058-.023.117-.025.175-.004.092.01.186.02.276.005.026.009.053.016.078.023.087.058.172.094.253.011.024.024.046.038.068.049.072.098.152.16.215.142.137.258.208.44.282.106.044.226.06.34.07.019.002.038 0 .057 0 .008 0 .016.004.024.004.09.004.181-.011.27-.022.028-.004.055-.009.082-.016.11-.031.226-.07.324-.131.094-.06.197-.127.274-.212.135-.153.204-.254.28-.445.01-.026.019-.05.024-.076.02-.091.042-.187.043-.281.001-.093-.01-.188-.025-.28-.004-.03-.013-.06-.024-.091" transform="translate(-493 -481) translate(0 439) translate(493 42.015)"/>
                        <path d="M47.006 24.689l-.005.147c-.038.975 1.478 1.035 1.514.058l.006-.148c.037-.974-1.478-1.034-1.515-.057" transform="translate(-493 -481) translate(0 439) translate(493 42.015) rotate(-13 47.76 24.791)"/>
                    </g>
                </g>
            </g>
        </g>
    </g>
</svg>
